<?xml version="1.0" encoding="UTF-8" standalone="no"?>
<!-- Created with Inkscape (http://www.inkscape.org/) -->

<svg
   xmlns:dc="http://purl.org/dc/elements/1.1/"
   xmlns:cc="http://creativecommons.org/ns#"
   xmlns:rdf="http://www.w3.org/1999/02/22-rdf-syntax-ns#"
   xmlns:svg="http://www.w3.org/2000/svg"
   xmlns="http://www.w3.org/2000/svg"
   xmlns:xlink="http://www.w3.org/1999/xlink"
   xmlns:sodipodi="http://sodipodi.sourceforge.net/DTD/sodipodi-0.dtd"
   xmlns:inkscape="http://www.inkscape.org/namespaces/inkscape"
   id="svg2"
   version="1.1"
   inkscape:version="0.91 r13725"
   width="2481"
   height="3503"
   sodipodi:docname="Pepper-and-Carrot_by-David-Revoy_E09P03.svg">
  <metadata
     id="metadata8">
    <rdf:RDF>
      <cc:Work
         rdf:about="">
        <dc:format>image/svg+xml</dc:format>
        <dc:type
           rdf:resource="http://purl.org/dc/dcmitype/StillImage" />
        <dc:title />
      </cc:Work>
    </rdf:RDF>
  </metadata>
  <defs
     id="defs6" />
  <sodipodi:namedview
     pagecolor="#ffffff"
     bordercolor="#666666"
     borderopacity="1"
     objecttolerance="10"
     gridtolerance="10"
     guidetolerance="10"
     inkscape:pageopacity="0"
     inkscape:pageshadow="2"
     inkscape:window-width="1920"
     inkscape:window-height="962"
     id="namedview4"
     showgrid="false"
     inkscape:zoom="0.36"
     inkscape:cx="1334.0664"
     inkscape:cy="1106.9881"
     inkscape:window-x="0"
     inkscape:window-y="30"
     inkscape:window-maximized="1"
     inkscape:current-layer="layer1" />
  <g
     inkscape:groupmode="layer"
     id="layer2"
     inkscape:label="artwork"
     sodipodi:insensitive="true">
    <image
       sodipodi:absref="/home/nightlock/peppercarrot-translations/peppercarrot_ep09_translation/kr/../gfx_Pepper-and-Carrot_by-David-Revoy_E09P03.png"
       xlink:href="../gfx_Pepper-and-Carrot_by-David-Revoy_E09P03.png"
       width="2481"
       height="3503"
       id="image10"
       x="0"
       y="0" />
  </g>
  <g
     inkscape:groupmode="layer"
     id="layer3"
     inkscape:label="speechbubbles" />
  <g
     inkscape:groupmode="layer"
     id="layer1"
     inkscape:label="txt">
    <path
       style="fill:#ffffff;fill-rule:evenodd;stroke:none;stroke-width:1px;stroke-linecap:butt;stroke-linejoin:miter;stroke-opacity:1"
       d="m 1071.3431,2648.381 c 0,0 3.7294,-19.9846 21.4443,-24.4257 17.7151,-4.4409 35.4299,12.2129 35.4299,12.2129 0,0 5.5941,-21.0949 21.4443,-22.2051 15.8502,-1.1105 32.6328,15.5435 32.6328,15.5435 0,0 3.7295,-14.4333 13.9855,-14.4333 10.2559,0 21.4443,12.2129 21.4443,12.2129 0,0 14.9178,-11.1028 27.0385,-11.1028 12.1208,0 32.6327,11.1028 32.6327,11.1028 0,0 8.3914,-7.7718 17.715,-7.7718 9.3237,0 23.3092,13.3231 23.3092,13.3231 0,0 11.1883,-18.8744 23.309,-17.7642 12.1208,1.1101 27.9708,15.5435 27.9708,15.5435 0,0 14.9179,-11.1024 23.3093,-8.882 8.3912,2.2205 25.1738,18.8745 25.1738,18.8745 0,0 0.9322,-5.5514 10.256,-2.2206 9.3236,3.3308 15.8501,12.2129 15.8501,12.2129 0,0 16.7826,-5.5513 29.8356,11.1026 13.0531,16.654 11.1885,36.6387 11.1885,36.6387 0,0 6.5265,14.4333 6.5265,25.5358 0,11.1028 -9.3237,21.0951 -9.3237,21.0951 0,0 13.9855,24.4257 6.5266,45.5207 -7.4589,21.0949 -18.6473,19.9847 -18.6473,19.9847 0,0 1.8647,11.1026 -1.8647,14.4334 -3.7294,3.3308 -15.8502,4.4411 -15.8502,4.4411 0,0 2.7971,12.2128 -13.9855,27.7564 -16.7824,15.5438 -55.0095,18.8745 -55.0095,18.8745 0,0 -12.1206,17.7641 -27.971,24.4257 -15.85,6.6616 -38.2267,1.1104 -38.2267,1.1104 0,0 -5.5943,18.8743 -24.2414,21.0949 -18.6474,2.2205 -48.4831,-12.2129 -48.4831,-12.2129 0,0 -21.4444,23.3155 -41.024,17.7642 -19.5796,-5.5513 -27.0385,-17.7642 -27.0385,-17.7642 0,0 -16.7825,6.6616 -34.4974,-2.2204 -17.715,-8.8822 -23.3092,-22.2053 -23.3092,-22.2053 0,0 -21.4444,4.441 -36.3622,0 -14.9178,-4.441 -28.9032,-26.6463 -28.9032,-26.6463 0,0 -23.3092,-3.3307 -37.2947,-22.2052 -13.9854,-18.8746 -11.1883,-43.3002 -11.1883,-43.3002 0,0 -17.71494,-21.095 -15.85021,-35.5284 1.86473,-14.4333 15.85021,-32.1975 15.85021,-32.1975 0,0 -8.3913,-13.3232 -5.59421,-22.2053 2.79711,-8.882 13.98551,-13.3231 13.98551,-13.3231 0,0 -13.98551,-26.6463 11.1883,-43.3002 25.1739,-16.654 46.6183,1.1102 46.6183,1.1102 z"
       id="path4136"
       inkscape:connector-curvature="0" />
    <path
       style="fill:#ffffff;fill-rule:evenodd;stroke:none;stroke-width:1px;stroke-linecap:butt;stroke-linejoin:miter;stroke-opacity:1"
       d="m 1433.1958,2917.298 c 0,0 6.896,-20.2401 28.3503,-10.1201 21.4544,10.1201 13.7921,23.3539 13.7921,23.3539 0,0 23.7531,10.8985 6.896,23.3539 -16.857,12.4555 -35.2464,4.6708 -35.2464,4.6708 0,0 -39.8438,9.3416 -48.2723,-17.1262 -8.4285,-26.4677 34.4803,-24.1323 34.4803,-24.1323 z"
       id="path4138"
       inkscape:connector-curvature="0" />
    <path
       style="fill:#ffffff;fill-rule:evenodd;stroke:none;stroke-width:1px;stroke-linecap:butt;stroke-linejoin:miter;stroke-opacity:1"
       d="m 1520.9124,2978.6737 c 0,0 6.8862,-6.9242 15.8384,0.5769 8.9521,7.5013 3.443,13.2714 3.443,13.2714 0,0 6.1977,10.9633 -6.1976,14.4254 -12.3953,3.4621 -21.3474,-5.7701 -21.3474,-5.7701 0,0 -24.1019,1.731 -22.036,-15.0025 2.0659,-16.7334 19.9701,-17.3104 30.2996,-7.5011 z"
       id="path4140"
       inkscape:connector-curvature="0" />
    <flowRoot
       xml:space="preserve"
       id="flowRoot2987-4-9-3"
       style="font-style:normal;font-variant:normal;font-weight:normal;font-stretch:normal;font-size:12px;line-height:100%;font-family:'Nanum Pen Script OTF';-inkscape-font-specification:'Nanum Pen Script OTF';text-align:center;letter-spacing:0px;word-spacing:0px;text-anchor:middle;fill:#000000;fill-opacity:1;stroke:none"
       transform="matrix(1.4634915,0,0,1.4634915,889.65747,2237.6268)"><flowRegion
         id="flowRegion2989-5-4-5"><rect
           id="rect2991-7-9-6"
           width="249.96664"
           height="223.65749"
           x="115.55251"
           y="285.53046"
           style="font-style:normal;font-variant:normal;font-weight:normal;font-stretch:normal;line-height:100%;font-family:'Nanum Pen Script OTF';-inkscape-font-specification:'Nanum Pen Script OTF';text-align:center;text-anchor:middle" /></flowRegion><flowPara
         style="font-style:normal;font-variant:normal;font-weight:normal;font-stretch:normal;font-size:48px;line-height:100%;font-family:'Nanum Pen Script OTF';-inkscape-font-specification:'Nanum Pen Script OTF';text-align:center;text-anchor:middle"
         id="flowPara3350">이 바보!</flowPara><flowPara
         style="font-style:normal;font-variant:normal;font-weight:normal;font-stretch:normal;font-size:48px;line-height:100%;font-family:'Nanum Pen Script OTF';-inkscape-font-specification:'Nanum Pen Script OTF';text-align:center;text-anchor:middle"
         id="flowPara3353">이젠 늦었어, 다들 날 싫어할거야...</flowPara></flowRoot>  </g>
</svg>
