<?xml version="1.0" encoding="UTF-8" standalone="no"?>
<!-- Created with Inkscape (http://www.inkscape.org/) -->

<svg
   xmlns:dc="http://purl.org/dc/elements/1.1/"
   xmlns:cc="http://creativecommons.org/ns#"
   xmlns:rdf="http://www.w3.org/1999/02/22-rdf-syntax-ns#"
   xmlns:svg="http://www.w3.org/2000/svg"
   xmlns="http://www.w3.org/2000/svg"
   xmlns:xlink="http://www.w3.org/1999/xlink"
   xmlns:sodipodi="http://sodipodi.sourceforge.net/DTD/sodipodi-0.dtd"
   xmlns:inkscape="http://www.inkscape.org/namespaces/inkscape"
   id="svg2"
   version="1.1"
   inkscape:version="0.91 r13725"
   width="2481"
   height="3503"
   sodipodi:docname="Pepper-and-Carrot_by-David-Revoy_E09P03.svg">
  <metadata
     id="metadata8">
    <rdf:RDF>
      <cc:Work
         rdf:about="">
        <dc:format>image/svg+xml</dc:format>
        <dc:type
           rdf:resource="http://purl.org/dc/dcmitype/StillImage" />
        <dc:title />
      </cc:Work>
    </rdf:RDF>
  </metadata>
  <defs
     id="defs6" />
  <sodipodi:namedview
     pagecolor="#ffffff"
     bordercolor="#666666"
     borderopacity="1"
     objecttolerance="10"
     gridtolerance="10"
     guidetolerance="10"
     inkscape:pageopacity="0"
     inkscape:pageshadow="2"
     inkscape:window-width="960"
     inkscape:window-height="962"
     id="namedview4"
     showgrid="false"
     inkscape:zoom="0.36"
     inkscape:cx="1334.0664"
     inkscape:cy="884.7659"
     inkscape:window-x="960"
     inkscape:window-y="30"
     inkscape:window-maximized="0"
     inkscape:current-layer="layer1" />
  <g
     inkscape:groupmode="layer"
     id="layer2"
     inkscape:label="artwork"
     sodipodi:insensitive="true">
    <image
       sodipodi:absref="/home/nightlock/peppercarrot-translations/peppercarrot_ep09_translation/kr/../gfx_Pepper-and-Carrot_by-David-Revoy_E09P03.png"
       xlink:href="../gfx_Pepper-and-Carrot_by-David-Revoy_E09P03.png"
       y="0"
       x="0"
       id="image10"
       height="3503"
       width="2481" />
  </g>
  <g
     inkscape:groupmode="layer"
     id="layer3"
     inkscape:label="speechbubbles" />
  <g
     inkscape:groupmode="layer"
     id="layer1"
     inkscape:label="txt">
    <path
       style="fill:#ffffff;fill-rule:evenodd;stroke:none;stroke-width:1px;stroke-linecap:butt;stroke-linejoin:miter;stroke-opacity:1"
       d="m 1039.562,2648.381 c 0,0 4.4301,-19.9846 25.4733,-24.4257 21.0434,-4.4409 42.0865,12.2129 42.0865,12.2129 0,0 6.6451,-21.0949 25.4733,-22.2051 18.8281,-1.1105 38.7639,15.5435 38.7639,15.5435 0,0 4.4302,-14.4333 16.6131,-14.4333 12.1828,0 25.4733,12.2129 25.4733,12.2129 0,0 17.7206,-11.1028 32.1185,-11.1028 14.3981,0 38.7638,11.1028 38.7638,11.1028 0,0 9.9679,-7.7718 21.0433,-7.7718 11.0754,0 27.6885,13.3231 27.6885,13.3231 0,0 13.2904,-18.8744 27.6884,-17.7642 14.398,1.1101 33.226,15.5435 33.226,15.5435 0,0 17.7206,-11.1024 27.6886,-8.882 9.9678,2.2205 29.9035,18.8745 29.9035,18.8745 0,0 1.1074,-5.5514 12.1829,-2.2206 11.0753,3.3308 18.8281,12.2129 18.8281,12.2129 0,0 19.9357,-5.5513 35.4411,11.1026 15.5056,16.654 13.2906,36.6387 13.2906,36.6387 0,0 7.7527,14.4333 7.7527,25.5358 0,11.1028 -11.0754,21.0951 -11.0754,21.0951 0,0 16.6131,24.4257 7.7528,45.5207 -8.8603,21.0949 -22.1508,19.9847 -22.1508,19.9847 0,0 2.2151,11.1026 -2.215,14.4334 -4.4301,3.3308 -18.8282,4.4411 -18.8282,4.4411 0,0 3.3226,12.2128 -16.6131,27.7564 -19.9355,15.5438 -65.3447,18.8745 -65.3447,18.8745 0,0 -14.3979,17.7641 -33.2262,24.4257 -18.828,6.6616 -45.4088,1.1104 -45.4088,1.1104 0,0 -6.6454,18.8743 -28.796,21.0949 -22.1508,2.2205 -57.5921,-12.2129 -57.5921,-12.2129 0,0 -25.4734,23.3155 -48.7316,17.7642 -23.2583,-5.5513 -32.1186,-17.7642 -32.1186,-17.7642 0,0 -19.9356,6.6616 -40.9788,-2.2204 -21.0433,-8.8822 -27.6886,-22.2053 -27.6886,-22.2053 0,0 -25.4734,4.441 -43.1939,0 -17.7206,-4.441 -34.3336,-26.6463 -34.3336,-26.6463 0,0 -27.68856,-3.3307 -44.30164,-22.2052 -16.61299,-18.8746 -13.29043,-43.3002 -13.29043,-43.3002 0,0 -21.0432,-21.095 -18.82812,-35.5284 2.21507,-14.4333 18.82812,-32.1975 18.82812,-32.1975 0,0 -9.96782,-13.3232 -6.64521,-22.2053 3.32265,-8.882 16.61308,-13.3231 16.61308,-13.3231 0,0 -16.61308,-26.6463 13.29042,-43.3002 29.90358,-16.654 55.37698,1.1102 55.37698,1.1102 z"
       id="path4136"
       inkscape:connector-curvature="0" />
    <path
       style="fill:#ffffff;fill-rule:evenodd;stroke:none;stroke-width:1px;stroke-linecap:butt;stroke-linejoin:miter;stroke-opacity:1"
       d="m 1433.1958,2917.298 c 0,0 6.896,-20.2401 28.3503,-10.1201 21.4544,10.1201 13.7921,23.3539 13.7921,23.3539 0,0 23.7531,10.8985 6.896,23.3539 -16.857,12.4555 -35.2464,4.6708 -35.2464,4.6708 0,0 -39.8438,9.3416 -48.2723,-17.1262 -8.4285,-26.4677 34.4803,-24.1323 34.4803,-24.1323 z"
       id="path4138"
       inkscape:connector-curvature="0" />
    <path
       style="fill:#ffffff;fill-rule:evenodd;stroke:none;stroke-width:1px;stroke-linecap:butt;stroke-linejoin:miter;stroke-opacity:1"
       d="m 1520.9124,2978.6737 c 0,0 6.8862,-6.9242 15.8384,0.5769 8.9521,7.5013 3.443,13.2714 3.443,13.2714 0,0 6.1977,10.9633 -6.1976,14.4254 -12.3953,3.4621 -21.3474,-5.7701 -21.3474,-5.7701 0,0 -24.1019,1.731 -22.036,-15.0025 2.0659,-16.7334 19.9701,-17.3104 30.2996,-7.5011 z"
       id="path4140"
       inkscape:connector-curvature="0" />
    <flowRoot
       xml:space="preserve"
       id="flowRoot2987-4-9-3"
       style="font-style:normal;font-variant:normal;font-weight:normal;font-stretch:normal;font-size:12px;line-height:100%;font-family:'Nanum Pen Script OTF';-inkscape-font-specification:'Nanum Pen Script OTF';text-align:center;letter-spacing:0px;word-spacing:0px;text-anchor:middle;fill:#000000;fill-opacity:1;stroke:none"
       transform="matrix(1.4634915,0,0,1.4634915,642.43525,2237.6268)"><flowRegion
         id="flowRegion2989-5-4-5"><rect
           id="rect2991-7-9-6"
           width="604.90173"
           height="240.73993"
           x="115.55251"
           y="285.53046"
           style="font-style:normal;font-variant:normal;font-weight:normal;font-stretch:normal;line-height:100%;font-family:'Nanum Pen Script OTF';-inkscape-font-specification:'Nanum Pen Script OTF';text-align:center;text-anchor:middle" /></flowRegion><flowPara
         style="font-style:normal;font-variant:normal;font-weight:normal;font-stretch:normal;font-size:48px;line-height:100%;font-family:'Nanum Pen Script OTF';-inkscape-font-specification:'Nanum Pen Script OTF';text-align:center;text-anchor:middle"
         id="flowPara3352">이 바보!</flowPara><flowPara
         style="font-style:normal;font-variant:normal;font-weight:normal;font-stretch:normal;font-size:48px;line-height:100%;font-family:'Nanum Pen Script OTF';-inkscape-font-specification:'Nanum Pen Script OTF';text-align:center;text-anchor:middle"
         id="flowPara3350">이젠 늦었어,</flowPara><flowPara
         style="font-style:normal;font-variant:normal;font-weight:normal;font-stretch:normal;font-size:48px;line-height:100%;font-family:'Nanum Pen Script OTF';-inkscape-font-specification:'Nanum Pen Script OTF';text-align:center;text-anchor:middle"
         id="flowPara3353">다들 날 싫어할거야...</flowPara></flowRoot>  </g>
</svg>
