<?xml version="1.0" encoding="UTF-8" standalone="no"?>
<!-- Created with Inkscape (http://www.inkscape.org/) -->

<svg
   xmlns:dc="http://purl.org/dc/elements/1.1/"
   xmlns:cc="http://creativecommons.org/ns#"
   xmlns:rdf="http://www.w3.org/1999/02/22-rdf-syntax-ns#"
   xmlns:svg="http://www.w3.org/2000/svg"
   xmlns="http://www.w3.org/2000/svg"
   xmlns:xlink="http://www.w3.org/1999/xlink"
   xmlns:sodipodi="http://sodipodi.sourceforge.net/DTD/sodipodi-0.dtd"
   xmlns:inkscape="http://www.inkscape.org/namespaces/inkscape"
   id="svg2"
   version="1.1"
   inkscape:version="0.91 r13725"
   width="2481"
   height="3503"
   sodipodi:docname="Pepper-and-Carrot_by-David-Revoy_E09P03.svg">
  <metadata
     id="metadata8">
    <rdf:RDF>
      <cc:Work
         rdf:about="">
        <dc:format>image/svg+xml</dc:format>
        <dc:type
           rdf:resource="http://purl.org/dc/dcmitype/StillImage" />
        <dc:title />
      </cc:Work>
    </rdf:RDF>
  </metadata>
  <defs
     id="defs6" />
  <sodipodi:namedview
     pagecolor="#ffffff"
     bordercolor="#666666"
     borderopacity="1"
     objecttolerance="10"
     gridtolerance="10"
     guidetolerance="10"
     inkscape:pageopacity="0"
     inkscape:pageshadow="2"
     inkscape:window-width="1920"
     inkscape:window-height="1024"
     id="namedview4"
     showgrid="false"
     inkscape:zoom="0.40000001"
     inkscape:cx="929.06642"
     inkscape:cy="767.53061"
     inkscape:window-x="-4"
     inkscape:window-y="-4"
     inkscape:window-maximized="1"
     inkscape:current-layer="layer1" />
  <g
     inkscape:groupmode="layer"
     id="layer2"
     inkscape:label="artwork"
     sodipodi:insensitive="true">
    <image
       sodipodi:absref="C:\Documents and Settings\Katerina\Plocha\Feferonka a Karotka\Episode 9\cs\..\gfx_Pepper-and-Carrot_by-David-Revoy_E09P03.png"
       xlink:href="..\gfx_Pepper-and-Carrot_by-David-Revoy_E09P03.png"
       y="0"
       x="0"
       id="image10"
       height="3503"
       width="2481" />
  </g>
  <g
     inkscape:groupmode="layer"
     id="layer3"
     inkscape:label="speechbubbles" />
  <g
     inkscape:groupmode="layer"
     id="layer1"
     inkscape:label="txt">
    <path
       style="fill:#ffffff;fill-rule:evenodd;stroke:none;stroke-width:1px;stroke-linecap:butt;stroke-linejoin:miter;stroke-opacity:1"
       d="m 1017.48,2661.428 c 0,0 4.7516,-20.3017 27.3219,-24.8133 22.5706,-4.5114 45.1408,12.4067 45.1408,12.4067 0,0 7.1273,-21.4296 27.3219,-22.5575 20.1945,-1.1281 41.5769,15.7902 41.5769,15.7902 0,0 4.7517,-14.6623 17.8187,-14.6623 13.067,0 27.3219,12.4066 27.3219,12.4066 0,0 19.0066,-11.2789 34.4494,-11.2789 15.443,0 41.5769,11.2789 41.5769,11.2789 0,0 10.6912,-7.8951 22.5704,-7.8951 11.8791,0 29.6978,13.5345 29.6978,13.5345 0,0 14.2549,-19.1739 29.6978,-18.046 15.4428,1.1277 35.6372,15.7901 35.6372,15.7901 0,0 19.0066,-11.2786 29.6979,-9.0229 10.6912,2.2557 32.0736,19.1739 32.0736,19.1739 0,0 1.1878,-5.6394 13.0671,-2.2558 11.879,3.3837 20.1944,12.4067 20.1944,12.4067 0,0 21.3824,-5.6394 38.0131,11.2788 16.6308,16.9182 14.2551,37.22 14.2551,37.22 0,0 8.3153,14.6624 8.3153,25.941 0,11.279 -11.8792,21.4298 -11.8792,21.4298 0,0 17.8187,24.8133 8.3155,46.243 -9.5033,21.4297 -23.7583,20.3018 -23.7583,20.3018 0,0 2.3758,11.2788 -2.3758,14.6625 -4.7516,3.3836 -20.1945,4.5115 -20.1945,4.5115 0,0 3.5637,12.4066 -17.8187,28.1969 -21.3823,15.7904 -70.0867,19.1739 -70.0867,19.1739 0,0 -15.4429,18.046 -35.6375,24.8133 -20.1944,6.7673 -48.7041,1.128 -48.7041,1.128 0,0 -7.1277,19.1738 -30.8858,21.4297 -23.7582,2.2557 -61.7715,-12.4067 -61.7715,-12.4067 0,0 -27.322,23.6854 -52.2681,18.046 -24.9461,-5.6393 -34.4494,-18.046 -34.4494,-18.046 0,0 -21.3823,6.7673 -43.9526,-2.2557 -22.5704,-9.0231 -29.6979,-22.5576 -29.6979,-22.5576 0,0 -27.322,4.5115 -46.3285,0 -19.0066,-4.5115 -36.82527,-27.0691 -36.82527,-27.0691 0,0 -29.69786,-3.3836 -47.51655,-22.5575 -17.81858,-19.1741 -14.25491,-43.9873 -14.25491,-43.9873 0,0 -22.5703,-21.4297 -20.19447,-36.0922 2.37581,-14.6623 20.19447,-32.7083 20.19447,-32.7083 0,0 -10.69118,-13.5346 -7.12745,-22.5577 3.56378,-9.0229 17.81869,-13.5345 17.81869,-13.5345 0,0 -17.81869,-27.0691 14.2549,-43.9872 32.07363,-16.9183 59.39559,1.1278 59.39559,1.1278 z"
       id="path4136"
       inkscape:connector-curvature="0" />
    <path
       style="fill:#ffffff;fill-rule:evenodd;stroke:none;stroke-width:1px;stroke-linecap:butt;stroke-linejoin:miter;stroke-opacity:1"
       d="m 1445.6958,2924.798 c 0,0 6.896,-20.2401 28.3503,-10.1201 21.4544,10.1201 13.7921,23.3539 13.7921,23.3539 0,0 23.7531,10.8985 6.896,23.3539 -16.857,12.4555 -35.2464,4.6708 -35.2464,4.6708 0,0 -39.8438,9.3416 -48.2723,-17.1262 -8.4285,-26.4677 34.4803,-24.1323 34.4803,-24.1323 z"
       id="path4138"
       inkscape:connector-curvature="0" />
    <path
       style="fill:#ffffff;fill-rule:evenodd;stroke:none;stroke-width:1px;stroke-linecap:butt;stroke-linejoin:miter;stroke-opacity:1"
       d="m 1530.9124,2986.1737 c 0,0 6.8862,-6.9242 15.8384,0.5769 8.9521,7.5013 3.443,13.2714 3.443,13.2714 0,0 6.1977,10.9633 -6.1976,14.4254 -12.3953,3.4621 -21.3474,-5.7701 -21.3474,-5.7701 0,0 -24.1019,1.731 -22.036,-15.0025 2.0659,-16.7334 19.9701,-17.3104 30.2996,-7.5011 z"
       id="path4140"
       inkscape:connector-curvature="0" />
    <flowRoot
       xml:space="preserve"
       id="flowRoot2987-4-9-3"
       style="font-style:normal;font-variant:normal;font-weight:normal;font-stretch:normal;font-size:12px;line-height:125%;font-family:Lavi;-inkscape-font-specification:Lavi;text-align:center;letter-spacing:0px;word-spacing:0px;text-anchor:middle;fill:#000000;fill-opacity:1;stroke:none"
       transform="translate(815.41194,2387.9931)"><flowRegion
         id="flowRegion2989-5-4-5"><rect
           id="rect2991-7-9-6"
           width="604.90173"
           height="240.73993"
           x="115.55251"
           y="285.53046"
           style="font-style:normal;font-variant:normal;font-weight:normal;font-stretch:normal;font-family:Lavi;-inkscape-font-specification:Lavi;text-align:center;text-anchor:middle" /></flowRegion><flowPara
         style="font-size:48px;text-align:center;text-anchor:middle"
         id="flowPara3030-8">Jsem pitomá!</flowPara><flowPara
         style="font-size:48px;text-align:center;text-anchor:middle"
         id="flowPara3483">Teď je moc pozdě,</flowPara><flowPara
         style="font-size:48px;text-align:center;text-anchor:middle"
         id="flowPara3347">už mě určitě nesnášejí...</flowPara></flowRoot>  </g>
</svg>
