<?xml version="1.0" encoding="UTF-8" standalone="no"?>
<!-- Created with Inkscape (http://www.inkscape.org/) -->

<svg
   xmlns:dc="http://purl.org/dc/elements/1.1/"
   xmlns:cc="http://creativecommons.org/ns#"
   xmlns:rdf="http://www.w3.org/1999/02/22-rdf-syntax-ns#"
   xmlns:svg="http://www.w3.org/2000/svg"
   xmlns="http://www.w3.org/2000/svg"
   xmlns:xlink="http://www.w3.org/1999/xlink"
   xmlns:sodipodi="http://sodipodi.sourceforge.net/DTD/sodipodi-0.dtd"
   xmlns:inkscape="http://www.inkscape.org/namespaces/inkscape"
   id="svg2"
   version="1.1"
   inkscape:version="0.91 r13725"
   width="2481"
   height="3503"
   sodipodi:docname="Pepper-and-Carrot_by-David-Revoy_E09P03.svg">
  <metadata
     id="metadata8">
    <rdf:RDF>
      <cc:Work
         rdf:about="">
        <dc:format>image/svg+xml</dc:format>
        <dc:type
           rdf:resource="http://purl.org/dc/dcmitype/StillImage" />
        <dc:title />
      </cc:Work>
    </rdf:RDF>
  </metadata>
  <defs
     id="defs6" />
  <sodipodi:namedview
     pagecolor="#ffffff"
     bordercolor="#666666"
     borderopacity="1"
     objecttolerance="10"
     gridtolerance="10"
     guidetolerance="10"
     inkscape:pageopacity="0"
     inkscape:pageshadow="2"
     inkscape:window-width="1151"
     inkscape:window-height="937"
     id="namedview4"
     showgrid="false"
     inkscape:zoom="0.40000001"
     inkscape:cx="929.06642"
     inkscape:cy="614.95765"
     inkscape:window-x="54"
     inkscape:window-y="-8"
     inkscape:window-maximized="1"
     inkscape:current-layer="layer1" />
  <g
     inkscape:groupmode="layer"
     id="layer2"
     inkscape:label="artwork"
     sodipodi:insensitive="true">
    <image
       sodipodi:absref="F:\peppercarrot_ep09_translation\jb\..\gfx_Pepper-and-Carrot_by-David-Revoy_E09P03.png"
       xlink:href="../gfx_Pepper-and-Carrot_by-David-Revoy_E09P03.png"
       width="2481"
       height="3503"
       id="image10"
       x="0"
       y="0" />
  </g>
  <g
     inkscape:groupmode="layer"
     id="layer3"
     inkscape:label="speechbubbles" />
  <g
     inkscape:groupmode="layer"
     id="layer1"
     inkscape:label="txt">
    <path
       style="fill:#ffffff;fill-rule:evenodd;stroke:none;stroke-width:1px;stroke-linecap:butt;stroke-linejoin:miter;stroke-opacity:1"
       d="m 1028.3451,2648.381 c 0,0 4.6774,-19.9846 26.8953,-24.4257 22.2181,-4.4409 44.4359,12.2129 44.4359,12.2129 0,0 7.0161,-21.0949 26.8953,-22.2051 19.8792,-1.1105 40.9278,15.5435 40.9278,15.5435 0,0 4.6775,-14.4333 17.5405,-14.4333 12.8629,0 26.8953,12.2129 26.8953,12.2129 0,0 18.7098,-11.1028 33.9115,-11.1028 15.2018,0 40.9277,11.1028 40.9277,11.1028 0,0 10.5243,-7.7718 22.218,-7.7718 11.6936,0 29.2341,13.3231 29.2341,13.3231 0,0 14.0323,-18.8744 29.2341,-17.7642 15.2017,1.1101 35.0808,15.5435 35.0808,15.5435 0,0 18.7098,-11.1024 29.2342,-8.882 10.5242,2.2205 31.5728,18.8745 31.5728,18.8745 0,0 1.1692,-5.5514 12.863,-2.2206 11.6936,3.3308 19.8791,12.2129 19.8791,12.2129 0,0 21.0486,-5.5513 37.4196,11.1026 16.3711,16.654 14.0325,36.6387 14.0325,36.6387 0,0 8.1855,14.4333 8.1855,25.5358 0,11.1028 -11.6937,21.0951 -11.6937,21.0951 0,0 17.5405,24.4257 8.1856,45.5207 -9.3549,21.0949 -23.3873,19.9847 -23.3873,19.9847 0,0 2.3387,11.1026 -2.3387,14.4334 -4.6774,3.3308 -19.8792,4.4411 -19.8792,4.4411 0,0 3.5081,12.2128 -17.5405,27.7564 -21.0484,15.5438 -68.9924,18.8745 -68.9924,18.8745 0,0 -15.2017,17.7641 -35.081,24.4257 -19.8791,6.6616 -47.9437,1.1104 -47.9437,1.1104 0,0 -7.0164,18.8743 -30.4035,21.0949 -23.3873,2.2205 -60.807,-12.2129 -60.807,-12.2129 0,0 -26.8954,23.3155 -51.452,17.7642 -24.5566,-5.5513 -33.9115,-17.7642 -33.9115,-17.7642 0,0 -21.0485,6.6616 -43.2664,-2.2204 -22.218,-8.8822 -29.2342,-22.2053 -29.2342,-22.2053 0,0 -26.8954,4.441 -45.6051,0 -18.7099,-4.441 -36.2503,-26.6463 -36.2503,-26.6463 0,0 -29.23417,-3.3307 -46.77464,-22.2052 -17.54037,-18.8746 -14.03234,-43.3002 -14.03234,-43.3002 0,0 -22.21789,-21.095 -19.87916,-35.5284 2.33872,-14.4333 19.87916,-32.1975 19.87916,-32.1975 0,0 -10.52425,-13.3232 -7.01616,-22.2053 3.50813,-8.882 17.54047,-13.3231 17.54047,-13.3231 0,0 -17.54047,-26.6463 14.03233,-43.3002 31.57284,-16.654 58.46824,1.1102 58.46824,1.1102 z"
       id="path4136"
       inkscape:connector-curvature="0" />
    <path
       style="fill:#ffffff;fill-rule:evenodd;stroke:none;stroke-width:1px;stroke-linecap:butt;stroke-linejoin:miter;stroke-opacity:1"
       d="m 1433.1958,2917.298 c 0,0 6.896,-20.2401 28.3503,-10.1201 21.4544,10.1201 13.7921,23.3539 13.7921,23.3539 0,0 23.7531,10.8985 6.896,23.3539 -16.857,12.4555 -35.2464,4.6708 -35.2464,4.6708 0,0 -39.8438,9.3416 -48.2723,-17.1262 -8.4285,-26.4677 34.4803,-24.1323 34.4803,-24.1323 z"
       id="path4138"
       inkscape:connector-curvature="0" />
    <path
       style="fill:#ffffff;fill-rule:evenodd;stroke:none;stroke-width:1px;stroke-linecap:butt;stroke-linejoin:miter;stroke-opacity:1"
       d="m 1520.9124,2978.6737 c 0,0 6.8862,-6.9242 15.8384,0.5769 8.9521,7.5013 3.443,13.2714 3.443,13.2714 0,0 6.1977,10.9633 -6.1976,14.4254 -12.3953,3.4621 -21.3474,-5.7701 -21.3474,-5.7701 0,0 -24.1019,1.731 -22.036,-15.0025 2.0659,-16.7334 19.9701,-17.3104 30.2996,-7.5011 z"
       id="path4140"
       inkscape:connector-curvature="0" />
    <flowRoot
       xml:space="preserve"
       id="flowRoot2987-4-9-3"
       style="font-style:normal;font-variant:normal;font-weight:normal;font-stretch:normal;font-size:12px;line-height:125%;font-family:Lavi;-inkscape-font-specification:Lavi;text-align:center;letter-spacing:0px;word-spacing:0px;text-anchor:middle;fill:#000000;fill-opacity:1;stroke:none"
       transform="translate(824.91194,2367.9931)"><flowRegion
         id="flowRegion2989-5-4-5"><rect
           id="rect2991-7-9-6"
           width="604.90173"
           height="240.73993"
           x="115.55251"
           y="285.53046"
           style="font-style:normal;font-variant:normal;font-weight:normal;font-stretch:normal;font-family:Lavi;-inkscape-font-specification:Lavi;text-align:center;text-anchor:middle" /></flowRegion><flowPara
         style="font-size:48px;text-align:center;text-anchor:middle"
         id="flowPara3030-8">i bebna doi mi fa la piper</flowPara><flowPara
         style="font-size:48px;text-align:center;text-anchor:middle"
         id="flowPara3407">i ca zildukse lerci</flowPara><flowPara
         style="font-size:48px;text-align:center;text-anchor:middle"
         id="flowPara3483">i ro le te makfa</flowPara><flowPara
         style="font-size:48px;text-align:center;text-anchor:middle"
         id="flowPara3415">ca xebni mi</flowPara></flowRoot>  </g>
</svg>
