<?xml version="1.0" encoding="UTF-8" standalone="no"?>
<!-- Created with Inkscape (http://www.inkscape.org/) -->

<svg
   xmlns:dc="http://purl.org/dc/elements/1.1/"
   xmlns:cc="http://creativecommons.org/ns#"
   xmlns:rdf="http://www.w3.org/1999/02/22-rdf-syntax-ns#"
   xmlns:svg="http://www.w3.org/2000/svg"
   xmlns="http://www.w3.org/2000/svg"
   xmlns:xlink="http://www.w3.org/1999/xlink"
   xmlns:sodipodi="http://sodipodi.sourceforge.net/DTD/sodipodi-0.dtd"
   xmlns:inkscape="http://www.inkscape.org/namespaces/inkscape"
   id="svg2"
   version="1.1"
   inkscape:version="0.91 r"
   width="2481"
   height="3503"
   sodipodi:docname="Pepper-and-Carrot_by-David-Revoy_E09P03.svg">
  <metadata
     id="metadata8">
    <rdf:RDF>
      <cc:Work
         rdf:about="">
        <dc:format>image/svg+xml</dc:format>
        <dc:type
           rdf:resource="http://purl.org/dc/dcmitype/StillImage" />
        <dc:title />
      </cc:Work>
    </rdf:RDF>
  </metadata>
  <defs
     id="defs6" />
  <sodipodi:namedview
     pagecolor="#ffffff"
     bordercolor="#666666"
     borderopacity="1"
     objecttolerance="10"
     gridtolerance="10"
     guidetolerance="10"
     inkscape:pageopacity="0"
     inkscape:pageshadow="2"
     inkscape:window-width="1920"
     inkscape:window-height="1028"
     id="namedview4"
     showgrid="false"
     inkscape:zoom="0.40000001"
     inkscape:cx="1359.0664"
     inkscape:cy="1644.9576"
     inkscape:window-x="0"
     inkscape:window-y="0"
     inkscape:window-maximized="1"
     inkscape:current-layer="layer1" />
  <g
     inkscape:groupmode="layer"
     id="layer2"
     inkscape:label="artwork"
     sodipodi:insensitive="true">
    <image
       sodipodi:absref="/home/deevad/Production/Webcomics/2015-07-31_ep09_The-Remedy/lang/pl/../gfx_Pepper-and-Carrot_by-David-Revoy_E09P03.png"
       xlink:href="../gfx_Pepper-and-Carrot_by-David-Revoy_E09P03.png"
       y="0"
       x="0"
       id="image10"
       height="3503"
       width="2481" />
  </g>
  <g
     inkscape:groupmode="layer"
     id="layer3"
     inkscape:label="speechbubbles" />
  <g
     inkscape:groupmode="layer"
     id="layer1"
     inkscape:label="txt">
    <path
       style="fill:#ffffff;fill-rule:evenodd;stroke:none;stroke-width:1px;stroke-linecap:butt;stroke-linejoin:miter;stroke-opacity:1"
       d="m 1072.4996,2660.3727 c 0,0 3.7314,-18.2406 21.4562,-22.2941 17.7248,-4.0533 35.4494,11.1471 35.4494,11.1471 0,0 5.5972,-19.2539 21.4563,-20.2672 15.8589,-1.0137 32.6507,14.187 32.6507,14.187 0,0 3.7316,-13.1737 13.9932,-13.1737 10.2617,0 21.4562,11.1471 21.4562,11.1471 0,0 14.9261,-10.1339 27.0535,-10.1339 12.1275,0 32.6508,10.1339 32.6508,10.1339 0,0 8.3958,-7.0936 17.7247,-7.0936 9.3288,0 23.322,12.1604 23.322,12.1604 0,0 11.1945,-17.2272 23.322,-16.2139 12.1275,1.0132 27.9863,14.187 27.9863,14.187 0,0 14.926,-10.1335 23.322,-8.1069 8.3959,2.0267 25.1878,17.2274 25.1878,17.2274 0,0 0.9327,-5.067 10.2616,-2.0268 9.3288,3.04 15.8589,11.147 15.8589,11.147 0,0 16.7919,-5.0669 29.8521,10.1337 13.0603,15.2005 11.1946,33.4412 11.1946,33.4412 0,0 6.5302,13.1736 6.5302,23.3072 0,10.1339 -9.3288,19.2542 -9.3288,19.2542 0,0 13.9932,22.2941 6.5302,41.5481 -7.463,19.2539 -18.6576,18.2406 -18.6576,18.2406 0,0 1.8657,10.1337 -1.8658,13.1737 -3.7314,3.0402 -15.8589,4.0536 -15.8589,4.0536 0,0 2.7987,11.1469 -13.9932,25.334 -16.7918,14.1873 -55.04,17.2274 -55.04,17.2274 0,0 -12.1274,16.2138 -27.9864,22.294 -15.8588,6.0802 -38.2479,1.0135 -38.2479,1.0135 0,0 -5.5974,17.2271 -24.2548,19.2539 -18.6577,2.0267 -48.5098,-11.147 -48.5098,-11.147 0,0 -21.4562,21.2807 -41.0467,16.2139 -19.5905,-5.0669 -27.0535,-16.2139 -27.0535,-16.2139 0,0 -16.7917,6.0802 -34.5164,-2.0266 -17.7249,-8.1071 -23.3221,-20.2675 -23.3221,-20.2675 0,0 -21.4563,4.0534 -36.3823,0 -14.9261,-4.0534 -28.9192,-24.3209 -28.9192,-24.3209 0,0 -23.3221,-3.04 -37.3153,-20.2673 -13.9931,-17.2274 -11.1945,-39.5214 -11.1945,-39.5214 0,0 -17.72468,-19.254 -15.85892,-32.4277 1.86575,-13.1738 15.85892,-29.3877 15.85892,-29.3877 0,0 -8.39589,-12.1605 -5.5973,-20.2673 2.7987,-8.1069 13.9932,-12.1604 13.9932,-12.1604 0,0 -13.9932,-24.3209 11.1946,-39.5215 25.1877,-15.2005 46.644,1.0134 46.644,1.0134 z"
       id="path4136"
       inkscape:connector-curvature="0" />
    <path
       style="fill:#ffffff;fill-rule:evenodd;stroke:none;stroke-width:1px;stroke-linecap:butt;stroke-linejoin:miter;stroke-opacity:1"
       d="m 1433.1958,2917.298 c 0,0 6.896,-20.2401 28.3503,-10.1201 21.4544,10.1201 13.7921,23.3539 13.7921,23.3539 0,0 23.7531,10.8985 6.896,23.3539 -16.857,12.4555 -35.2464,4.6708 -35.2464,4.6708 0,0 -39.8438,9.3416 -48.2723,-17.1262 -8.4285,-26.4677 34.4803,-24.1323 34.4803,-24.1323 z"
       id="path4138"
       inkscape:connector-curvature="0" />
    <path
       style="fill:#ffffff;fill-rule:evenodd;stroke:none;stroke-width:1px;stroke-linecap:butt;stroke-linejoin:miter;stroke-opacity:1"
       d="m 1520.9124,2978.6737 c 0,0 6.8862,-6.9242 15.8384,0.5769 8.9521,7.5013 3.443,13.2714 3.443,13.2714 0,0 6.1977,10.9633 -6.1976,14.4254 -12.3953,3.4621 -21.3474,-5.7701 -21.3474,-5.7701 0,0 -24.1019,1.731 -22.036,-15.0025 2.0659,-16.7334 19.9701,-17.3104 30.2996,-7.5011 z"
       id="path4140"
       inkscape:connector-curvature="0" />
    <flowRoot
       xml:space="preserve"
       id="flowRoot2987-4-9-3"
       style="font-style:normal;font-variant:normal;font-weight:normal;font-stretch:normal;font-size:12px;line-height:125%;font-family:Lavi;-inkscape-font-specification:Lavi;text-align:center;letter-spacing:0px;word-spacing:0px;text-anchor:middle;fill:#000000;fill-opacity:1;stroke:none"
       transform="translate(823.30303,2395.7723)"><flowRegion
         id="flowRegion2989-5-4-5"><rect
           id="rect2991-7-9-6"
           width="604.90173"
           height="240.73993"
           x="115.55251"
           y="285.53046"
           style="font-style:normal;font-variant:normal;font-weight:normal;font-stretch:normal;font-family:Lavi;-inkscape-font-specification:Lavi;text-align:center;text-anchor:middle" /></flowRegion><flowPara
         style="font-size:48px;text-align:center;text-anchor:middle"
         id="flowPara3483">Jaka ja głupia!</flowPara><flowPara
         style="font-size:48px;text-align:center;text-anchor:middle"
         id="flowPara3350">Teraz mnie</flowPara><flowPara
         style="font-size:48px;text-align:center;text-anchor:middle"
         id="flowPara3352">nienawidzą!</flowPara></flowRoot>  </g>
</svg>
