<?xml version="1.0" encoding="UTF-8" standalone="no"?>
<!-- Created with Inkscape (http://www.inkscape.org/) -->

<svg
   xmlns:dc="http://purl.org/dc/elements/1.1/"
   xmlns:cc="http://creativecommons.org/ns#"
   xmlns:rdf="http://www.w3.org/1999/02/22-rdf-syntax-ns#"
   xmlns:svg="http://www.w3.org/2000/svg"
   xmlns="http://www.w3.org/2000/svg"
   xmlns:xlink="http://www.w3.org/1999/xlink"
   xmlns:sodipodi="http://sodipodi.sourceforge.net/DTD/sodipodi-0.dtd"
   xmlns:inkscape="http://www.inkscape.org/namespaces/inkscape"
   id="svg2"
   version="1.1"
   inkscape:version="0.91 r13725"
   width="2481"
   height="3503"
   sodipodi:docname="Pepper-and-Carrot_by-David-Revoy_E09P07.svg">
  <metadata
     id="metadata8">
    <rdf:RDF>
      <cc:Work
         rdf:about="">
        <dc:format>image/svg+xml</dc:format>
        <dc:type
           rdf:resource="http://purl.org/dc/dcmitype/StillImage" />
        <dc:title />
      </cc:Work>
    </rdf:RDF>
  </metadata>
  <defs
     id="defs6" />
  <sodipodi:namedview
     pagecolor="#ffffff"
     bordercolor="#666666"
     borderopacity="1"
     objecttolerance="10"
     gridtolerance="10"
     guidetolerance="10"
     inkscape:pageopacity="0"
     inkscape:pageshadow="2"
     inkscape:window-width="1304"
     inkscape:window-height="745"
     id="namedview4"
     showgrid="false"
     inkscape:zoom="0.30245747"
     inkscape:cx="1145.7277"
     inkscape:cy="1984.2708"
     inkscape:window-x="-8"
     inkscape:window-y="-8"
     inkscape:window-maximized="1"
     inkscape:current-layer="layer1" />
  <g
     inkscape:groupmode="layer"
     id="layer2"
     inkscape:label="artwork"
     sodipodi:insensitive="true">
    <image
       sodipodi:absref="E:\Projects\Pepper&amp;Carrot\peppercarrot_ep09_translation\hu\..\gfx_Pepper-and-Carrot_by-David-Revoy_E09P07.png"
       xlink:href="..\gfx_Pepper-and-Carrot_by-David-Revoy_E09P07.png"
       width="2481"
       height="3503"
       id="image10"
       x="0"
       y="0" />
  </g>
  <g
     inkscape:groupmode="layer"
     id="layer3"
     inkscape:label="speechbubbles" />
  <g
     inkscape:groupmode="layer"
     id="layer1"
     inkscape:label="txt">
    <path
       style="color:#000000;display:inline;overflow:visible;visibility:visible;fill:#ffffff;fill-opacity:1;fill-rule:nonzero;stroke:none;stroke-width:1px;marker:none;enable-background:accumulate"
       d="m 975.99347,127.19889 c -5.24096,15.19789 -34.80048,16.47229 -45.68218,13.38306 21.93496,17.00163 21.17026,27.56501 -8.61124,29.20518 49.94407,30.64139 9.13046,26.00463 1.08024,33.77441 39.21535,10.55969 21.67001,23.70151 14.68832,36.78394 30.59447,-8.28792 41.02578,1.21511 30.33457,17.91694 17.04172,-10.56764 30.78839,-4.39326 24.95562,15.07424 29.8139,-25.34591 65.724,-41.71812 68.5754,2.63734 12.0126,-22.31401 23.9891,-31.74482 23.067,-5.13073 29.7632,-34.61498 56.5097,-22.15522 83.4147,-12.37172 7.0665,-10.44762 0.9648,-27.59035 30.7514,-22.73682 -13.9078,-11.99371 4.5136,-17.47378 21.9457,-21.70094 -23.1645,-6.25544 -27.4337,-12.70777 15.5777,-19.65149 -32.7291,-0.67165 -63.2493,-2.04772 -24.8509,-25.72782 -12.0466,-0.57299 -40.6286,19.18633 -27.3025,-38.63975 -20.7149,18.51215 -42.8158,28.72954 -70.5324,-10.04868 -13.1169,19.37283 -35.8678,28.95929 -45.7656,4.76107 -3.5575,10.31613 -18.3086,14.19585 -30.8312,14.66635 -4.8425,-4.09777 -9.837,-9.66356 -15.049,-16.95565 -8.5186,15.31146 -21.2615,25.65215 -45.76563,4.76107 z"
       id="path3549-3-7"
       inkscape:connector-curvature="0"
       sodipodi:nodetypes="cccccccccccccccccccc" />
    <path
       style="color:#000000;display:inline;overflow:visible;visibility:visible;fill:#ffffff;fill-opacity:1;fill-rule:nonzero;stroke:none;stroke-width:1px;marker:none;enable-background:accumulate"
       d="m 1546.5959,307.27588 c 10.0441,-35.76408 25.8672,-34.65587 38.8655,-22.77693 9.7478,-38.61314 35.4641,-25.81184 74.1885,-27.31785 -0.6554,-14.74979 -13.0451,-32.83012 16.074,-39.12923 -12.2566,-9.95432 -9.4207,-21.32088 6.8818,-33.94792 -31.5377,3.68718 -41.7363,-1.48532 1.3873,-28.79657 -37.7676,14.21516 -73.6364,26.64994 -49.6763,-17.00889 -14.1722,4.87293 -47.5196,29.44324 -63.1735,-30.13185 -16.0977,38.75747 -31.3172,50.30525 -88.5366,21.14382 3.0496,20.77675 -2.8269,37.99536 -48.0597,26.15585 6.6814,19.15373 -25.8885,34.05214 -40.8288,35.6181 39.0771,8.72457 47.0036,20.71442 14.5099,36.13191 82.2639,10.96637 32.0218,24.52242 29.3317,36.76881 53.3651,-6.27539 44.3321,16.21402 47.2752,33.83055 51.6174,-20.10142 50.4098,-13.72805 61.761,9.4602 z"
       id="path3549-3"
       inkscape:connector-curvature="0"
       sodipodi:nodetypes="ccccccccccccccc" />
    <path
       style="fill:#ffffff;fill-rule:evenodd;stroke:none;stroke-width:1px;stroke-linecap:butt;stroke-linejoin:miter;stroke-opacity:1"
       d="m 1477.9067,463.11034 c 0,0 -54.6895,-26.58924 -42.2601,-70.59904 12.4294,-44.00979 9.9436,27.50613 42.2601,70.59904 z"
       id="path4323-7"
       inkscape:connector-curvature="0" />
    <path
       style="fill:#ffffff;fill-rule:evenodd;stroke:none;stroke-width:1px;stroke-linecap:butt;stroke-linejoin:miter;stroke-opacity:1"
       d="m 1356.5378,491.51299 c 0,0 52.4841,-55.94607 36.6214,-99.3802 -15.8626,-43.43413 24.72,8.47189 24.72,8.47189 0,0 14.669,43.08756 -61.3414,90.90831 z"
       id="path4319-8"
       inkscape:connector-curvature="0" />
    <path
       style="fill:#ffffff;fill-rule:evenodd;stroke:none;stroke-width:1px;stroke-linecap:butt;stroke-linejoin:miter;stroke-opacity:1"
       d="m 1108.7041,498.80966 c 0,0 34.8023,-68.3618 7.4576,-105.65006 -27.3447,-37.28825 26.1018,1.24294 26.1018,1.24294 0,0 26.1018,37.28826 -33.5594,104.40712 z"
       id="path4319"
       inkscape:connector-curvature="0" />
    <path
       style="fill:#ffffff;fill-rule:evenodd;stroke:none;stroke-width:1px;stroke-linecap:butt;stroke-linejoin:miter;stroke-opacity:1"
       d="m 1226.7836,471.46494 c 0,0 -54.6895,-36.04531 -42.2601,-95.70652 12.4294,-59.6612 9.9436,37.28826 42.2601,95.70652 z"
       id="path4323"
       inkscape:connector-curvature="0" />
    <path
       style="fill:#ffffff;stroke:none"
       d="m 1245.744,335.0962 c -0.8515,-28.50448 26.2812,-98.23015 144.4172,-98.2913 119.9366,-0.0621 154.1359,41.54259 156.7081,92.24268 4.0692,80.20614 -58.3208,99.64019 -147.4746,102.76282 -91.908,3.21917 -148.6243,-24.61717 -153.6507,-96.7142 z"
       id="path3280-4"
       inkscape:connector-curvature="0"
       sodipodi:nodetypes="csssc" />
    <path
       style="fill:#ffffff;stroke:none"
       d="m 967.6039,325.1971 c -0.901,-26.32275 28.1767,-99.14667 152.8043,-90.7681 124.6277,8.37856 163.0874,38.36292 165.809,85.18244 4.3055,74.06717 -61.7078,92.01375 -156.0393,94.89737 -97.2456,2.97278 -157.2557,-22.73298 -162.574,-89.31171 z"
       id="path3280"
       inkscape:connector-curvature="0"
       sodipodi:nodetypes="csssc" />
    <path
       style="fill:#ffffff;fill-rule:evenodd;stroke:none;stroke-width:1px;stroke-linecap:butt;stroke-linejoin:miter;stroke-opacity:1"
       d="m 2143.5029,1943.0428 c 0,0 -95.3399,295.8089 -414.2353,263.1064 -318.8953,-32.7025 286.0196,215.5391 414.2353,-263.1064 z"
       id="path4196"
       inkscape:connector-curvature="0" />
    <path
       style="color:#000000;display:inline;overflow:visible;visibility:visible;fill:#ffffff;fill-opacity:1;fill-rule:nonzero;stroke:none;stroke-width:1px;marker:none;enable-background:accumulate"
       d="m 1256.5055,2163.1144 c 51.1996,-93.0402 159.556,-100.1336 247.2596,-107.1335 102.4742,-3.2605 209.7172,-1.4894 305.7065,42.317 73.4936,44.2441 99.683,172.8604 30.0885,234.684 -68.94,61.6261 -163.863,61.4843 -247.9326,62.8362 -90.5609,-3.8914 -182.3407,-12.9387 -269.6515,-40.6401 -65.0374,-29.4907 -104.8372,-121.6483 -65.4705,-192.0636 z"
       id="path3533"
       inkscape:connector-curvature="0" />
    <path
       style="fill:#ffffff;fill-rule:evenodd;stroke:none;stroke-width:1px;stroke-linecap:butt;stroke-linejoin:miter;stroke-opacity:1"
       d="m 1560.9274,1811.2228 c 0,0 -126.2755,-97.0217 -187.8463,-99.3499 -61.5707,-2.3281 -29.5112,-37.7601 -29.5112,-37.7601 0,0 88.6993,-5.9935 217.3575,137.11 z"
       id="path4188"
       inkscape:connector-curvature="0" />
    <path
       style="color:#000000;display:inline;overflow:visible;visibility:visible;fill:#ffffff;fill-opacity:1;fill-rule:nonzero;stroke:none;stroke-width:1px;marker:none;enable-background:accumulate"
       d="m 686.51113,1639.596 c 10.80835,-86.633 119.85572,-148.9166 399.21827,-129.5597 149.6416,10.3683 319.6591,17.9501 305.564,144.8804 -14.0949,126.9299 -258.583,121.0058 -309.1417,123.4282 -50.5589,2.4225 -313.20515,-13.7587 -358.17261,-57.4767 -28.1486,-27.3662 -38.92571,-54.421 -37.46796,-81.2722 z"
       id="path4546"
       inkscape:connector-curvature="0"
       sodipodi:nodetypes="cssssc" />
    <flowRoot
       xml:space="preserve"
       id="flowRoot2987-4-9-3"
       style="font-style:normal;font-variant:normal;font-weight:normal;font-stretch:normal;font-size:12px;line-height:125%;font-family:Lavi;-inkscape-font-specification:Lavi;text-align:center;letter-spacing:0px;word-spacing:0px;text-anchor:middle;fill:#000000;fill-opacity:1;stroke:none"
       transform="translate(605.56247,1295.8263)"><flowRegion
         id="flowRegion2989-5-4-5"><rect
           id="rect2991-7-9-6"
           width="678.92896"
           height="317.26712"
           x="94.835922"
           y="250.3343"
           style="font-style:normal;font-variant:normal;font-weight:normal;font-stretch:normal;font-family:Lavi;-inkscape-font-specification:Lavi;text-align:center;text-anchor:middle" /></flowRegion><flowPara
         style="font-size:48px;text-align:center;text-anchor:middle"
         id="flowPara3497">Azért kár,</flowPara><flowPara
         style="font-size:48px;text-align:center;text-anchor:middle"
         id="flowPara3410">hogy nem tudtuk elkerülni</flowPara><flowPara
         style="font-size:48px;text-align:center;text-anchor:middle"
         id="flowPara3412">a mellékhatásokat...</flowPara></flowRoot>    <flowRoot
       xml:space="preserve"
       id="flowRoot2987-4-9-3-2"
       style="font-style:normal;font-variant:normal;font-weight:normal;font-stretch:normal;font-size:12px;line-height:125%;font-family:Lavi;-inkscape-font-specification:Lavi;text-align:center;letter-spacing:0px;word-spacing:0px;text-anchor:middle;fill:#000000;fill-opacity:1;stroke:none"
       transform="translate(1143.5909,1836.7128)"><flowRegion
         id="flowRegion2989-5-4-5-6"><rect
           id="rect2991-7-9-6-2"
           width="590.15173"
           height="262.98993"
           x="120.55251"
           y="265.53046"
           style="font-style:normal;font-variant:normal;font-weight:normal;font-stretch:normal;font-family:Lavi;-inkscape-font-specification:Lavi;text-align:center;text-anchor:middle" /></flowRegion><flowPara
         style="font-size:48px;text-align:center;text-anchor:middle"
         id="flowPara3501">Ne aggódj, a</flowPara><flowPara
         style="font-size:48px;text-align:center;text-anchor:middle"
         id="flowPara3429">szőr- és tollhullás csak átmeneti, hamar vissza fognak nőni.</flowPara></flowRoot>    <flowRoot
       transform="matrix(1.1009585,0,-0.26823648,1.9713509,735.95253,2764.8535)"
       style="font-style:normal;font-variant:normal;font-weight:normal;font-stretch:normal;font-size:12px;line-height:125%;font-family:Lavi;-inkscape-font-specification:Lavi;text-align:center;letter-spacing:0px;word-spacing:0px;text-anchor:middle;fill:#000000;fill-opacity:1;stroke:#000000;stroke-width:4.69999981;stroke-miterlimit:4;stroke-dasharray:none;stroke-opacity:1"
       id="flowRoot4212-3-7-8-6"
       xml:space="preserve"><flowRegion
         id="flowRegion4214-6-7-8-3"><rect
           style="font-style:normal;font-variant:normal;font-weight:normal;font-stretch:normal;font-family:Lavi;-inkscape-font-specification:Lavi;text-align:center;text-anchor:middle;stroke:#000000;stroke-width:4.69999981;stroke-miterlimit:4;stroke-dasharray:none;stroke-opacity:1"
           y="265.53046"
           x="120.55251"
           height="355.03918"
           width="798.1947"
           id="rect4216-4-0-26-5" /></flowRegion><flowPara
         style="font-size:48px;text-align:center;letter-spacing:5.20896292px;text-anchor:middle;stroke:#000000;stroke-width:4.69999981;stroke-miterlimit:4;stroke-dasharray:none;stroke-opacity:1"
         id="flowPara4358-7-1">- FIN -</flowPara></flowRoot>    <flowRoot
       xml:space="preserve"
       id="flowRoot2987-4-9-3-6-3-8-7-2-7-2"
       style="font-style:normal;font-variant:normal;font-weight:normal;font-stretch:normal;font-size:7.94800568px;line-height:125%;font-family:Lavi;-inkscape-font-specification:Lavi;text-align:center;letter-spacing:0px;word-spacing:0px;text-anchor:middle;opacity:0.40200004;fill:#000000;fill-opacity:1;stroke:none"
       transform="translate(838.14746,3416.6537)"><flowRegion
         id="flowRegion2989-5-4-5-5-3-0-6-76-8-1"><rect
           id="rect2991-7-9-6-21-9-8-0-3-1-7"
           width="1557.0247"
           height="47.925102"
           x="-376.30569"
           y="-2.9480622"
           style="font-style:normal;font-variant:normal;font-weight:normal;font-stretch:normal;font-family:Lavi;-inkscape-font-specification:Lavi;text-align:center;text-anchor:middle" /></flowRegion><flowPara
         style="font-size:40px;text-align:center;text-anchor:middle;fill:#000000;fill-opacity:1"
         id="flowPara3272-6-3-1">2015. július - Grafika és történet: David Revoy - Fordítás: Halász Gábor &quot;Hali&quot;</flowPara></flowRoot>    <flowRoot
       xml:space="preserve"
       id="flowRoot2987-4-9-3-9"
       style="font-style:normal;font-variant:normal;font-weight:normal;font-stretch:normal;font-size:12px;line-height:125%;font-family:Lavi;-inkscape-font-specification:Lavi;text-align:center;letter-spacing:0px;word-spacing:0px;text-anchor:middle;fill:#000000;fill-opacity:1;stroke:none"
       transform="matrix(1.1435621,0,0,1.1435621,699.04864,-141.00518)"><flowRegion
         id="flowRegion2989-5-4-5-8"><rect
           id="rect2991-7-9-6-21"
           width="409.9017"
           height="145.73993"
           x="120.55251"
           y="265.53046"
           style="font-style:normal;font-variant:normal;font-weight:normal;font-stretch:normal;font-family:Lavi;-inkscape-font-specification:Lavi;text-align:center;text-anchor:middle" /></flowRegion><flowPara
         style="font-size:48px;text-align:center;text-anchor:middle"
         id="flowPara3030-8-7">Szuper!</flowPara></flowRoot>    <flowRoot
       xml:space="preserve"
       id="flowRoot2987-4-9-3-9-2"
       style="font-style:normal;font-variant:normal;font-weight:normal;font-stretch:normal;font-size:12px;line-height:125%;font-family:Lavi;-inkscape-font-specification:Lavi;text-align:center;letter-spacing:0px;word-spacing:0px;text-anchor:middle;fill:#000000;fill-opacity:1;stroke:none"
       transform="translate(1219.642,-89.193687)"><flowRegion
         id="flowRegion2989-5-4-5-8-2"><rect
           id="rect2991-7-9-6-21-2"
           width="409.9017"
           height="145.73993"
           x="120.55251"
           y="265.53046"
           style="font-style:normal;font-variant:normal;font-weight:normal;font-stretch:normal;font-family:Lavi;-inkscape-font-specification:Lavi;text-align:center;text-anchor:middle" /></flowRegion><flowPara
         style="font-size:48px;text-align:center;text-anchor:middle"
         id="flowPara3030-8-7-7">Hurrá!</flowPara></flowRoot>    <flowRoot
       xml:space="preserve"
       id="flowRoot2987-4-9-3-9-2-2"
       style="font-style:normal;font-variant:normal;font-weight:normal;font-stretch:normal;font-size:12px;line-height:125%;font-family:Lavi;-inkscape-font-specification:Lavi;text-align:center;letter-spacing:0px;word-spacing:0px;text-anchor:middle;fill:#000000;fill-opacity:1;stroke:none"
       transform="translate(789.12501,1.3849159)"><flowRegion
         id="flowRegion2989-5-4-5-8-2-2"><rect
           id="rect2991-7-9-6-21-2-5"
           width="437.4017"
           height="148.23993"
           x="120.55251"
           y="265.53046"
           style="font-style:normal;font-variant:normal;font-weight:normal;font-stretch:normal;font-family:Lavi;-inkscape-font-specification:Lavi;text-align:center;text-anchor:middle" /></flowRegion><flowPara
         style="font-size:48px;text-align:center;text-anchor:middle"
         id="flowPara3489">Mi vagyunk</flowPara><flowPara
         style="font-size:48px;text-align:center;text-anchor:middle"
         id="flowPara3401">a legjobbak!</flowPara></flowRoot>    <flowRoot
       xml:space="preserve"
       id="flowRoot2987-4-9-3-9-2-2-9"
       style="font-style:normal;font-variant:normal;font-weight:normal;font-stretch:normal;font-size:12px;line-height:125%;font-family:Lavi;-inkscape-font-specification:Lavi;text-align:center;letter-spacing:0px;word-spacing:0px;text-anchor:middle;fill:#000000;fill-opacity:1;stroke:none"
       transform="translate(1144.2851,11.326323)"><flowRegion
         id="flowRegion2989-5-4-5-8-2-2-8"><rect
           id="rect2991-7-9-6-21-2-5-3"
           width="282.4017"
           height="209.28368"
           x="120.55251"
           y="265.53046"
           style="font-style:normal;font-variant:normal;font-weight:normal;font-stretch:normal;font-family:Lavi;-inkscape-font-specification:Lavi;text-align:center;text-anchor:middle" /></flowRegion><flowPara
         style="font-size:48px;text-align:center;text-anchor:middle"
         id="flowPara3491">Mind meg-gyógyultak!</flowPara></flowRoot>    <g
       id="layer1-5"
       transform="matrix(0.09993595,-0.03471419,0.02199218,0.07732029,1625.4623,400.02)">
      <path
         inkscape:connector-curvature="0"
         id="path5065"
         sodipodi:nodetypes="ccsscccssccccccc"
         style="fill:#000000"
         d="m 374.44,235.15 c -28.01,122.41 -59.79,323.52 -95.43,421.8 -104.65,-72.46 -170.09,-41.87 -159.54,41.06 6.7707,53.218 107.92,95.879 173.7,-8.6655 39.841,-63.316 52.861,-191.32 75.437,-296.09 62.46,37.494 122.31,101.13 202.86,111.59 -16.838,75.898 -47.082,194.01 -65.21,272.82 -104.65,-72.46 -192.89,-41.986 -182.34,40.945 6.7707,53.218 177.12,90.859 205.55,-23.531 l 103.19,-415.31 c -65.16,35.4 -188.96,-100.04 -258.22,-144.62 z m 10.854,74.896 c 65.248,37.815 131,118.89 206.47,122.72 -2.5111,11.129 -2.0944,26.125 -4.5591,37.149 -77.915,-10.686 -144.21,-80.519 -211.05,-117.12 2.1323,-10.115 7.3372,-33.949 9.1345,-42.74 z" />
    </g>
    <path
       inkscape:connector-curvature="0"
       id="path5065-6"
       sodipodi:nodetypes="ccssscccsscc"
       style="fill:#000000"
       d="m 1658.6804,462.16434 c -1.8261,7.33947 -3.2225,16.89617 -5.6774,23.63608 -8.6718,-4.11357 -14.4773,-1.39189 -11.3868,2.77108 1.6467,2.2182 7.6553,5.33824 12.8536,0.27481 0.4319,-0.42068 1.1251,-1.74259 1.3255,-2.48647 1.7791,-6.60292 2.6559,-16.4844 3.9247,-22.00797 4.7388,2.92889 11.0901,8.00144 17.605,8.4663 -1.0859,4.5587 -4.9467,16.69861 -6.1262,21.43362 -8.6717,-4.11357 -15.8148,-2.20506 -13.5876,2.39426 1.5291,3.15806 13.561,3.66292 14.9902,-1.2228 l 7.3566,-25.14614 c -5.1153,2.23897 -15.5502,-5.59171 -21.2769,-8.113 z" />
    <path
       inkscape:connector-curvature="0"
       id="path5065-6-4"
       sodipodi:nodetypes="ccsssccccc"
       style="fill:#000000"
       d="m 1625.8947,385.96207 c 2.7567,10.52928 7.7574,23.71505 9.1696,33.80096 -15.4882,-0.71037 -21.8407,5.93998 -14.3433,9.70356 3.9951,2.00519 14.9246,2.84842 18.6866,-6.52484 0.3126,-0.77875 0.3399,-2.87029 0.083,-3.94574 -2.2841,-9.54586 -8.5993,-24.05044 -10.8256,-31.91837 3.4854,2.82072 5.7634,5.71207 7.0092,5.529 -0.02,-1.14139 0.4277,-2.25146 0.4667,-3.12709 -3.9535,-2.00957 -2.9622,-0.77496 -7.7804,-4.6167 -0.6703,-0.53448 -0.2798,0.8273 -2.466,1.09965 z" />
    <g
       id="layer1-5-7"
       transform="matrix(0.06843295,-0.08960639,0.06473847,0.05970609,859.00836,409.4882)">
      <path
         inkscape:connector-curvature="0"
         id="path5065-3"
         sodipodi:nodetypes="ccsscccssccccccc"
         style="fill:#000000"
         d="m 374.44,235.15 c -28.01,122.41 -59.79,323.52 -95.43,421.8 -104.65,-72.46 -170.09,-41.87 -159.54,41.06 6.7707,53.218 107.92,95.879 173.7,-8.6655 39.841,-63.316 52.861,-191.32 75.437,-296.09 62.46,37.494 122.31,101.13 202.86,111.59 -16.838,75.898 -47.082,194.01 -65.21,272.82 -104.65,-72.46 -192.89,-41.986 -182.34,40.945 6.7707,53.218 177.12,90.859 205.55,-23.531 l 103.19,-415.31 c -65.16,35.4 -188.96,-100.04 -258.22,-144.62 z m 10.854,74.896 c 65.248,37.815 131,118.89 206.47,122.72 -2.5111,11.129 -2.0944,26.125 -4.5591,37.149 -77.915,-10.686 -144.21,-80.519 -211.05,-117.12 2.1323,-10.115 7.3372,-33.949 9.1345,-42.74 z" />
    </g>
    <path
       inkscape:connector-curvature="0"
       id="path5065-6-4-1"
       sodipodi:nodetypes="ccsssccccc"
       style="fill:#000000"
       d="m 965.15141,426.25242 c 1.70973,11.89036 5.47342,26.96096 5.82391,38.20755 -16.1508,-2.58466 -23.55228,3.98259 -16.11714,8.99121 3.96193,2.6686 15.32066,4.86821 20.31253,-4.99263 0.41481,-0.81925 0.67768,-3.11419 0.52868,-4.32581 -1.32459,-10.75474 -6.31815,-27.42753 -7.77011,-36.3319 3.33661,3.50531 5.39996,6.94759 6.72593,6.89155 0.10698,-1.25644 0.70034,-2.424 0.83928,-3.38158 -3.91793,-2.66857 -3.01736,-1.19655 -7.63621,-5.97896 -0.64261,-0.66536 -0.38586,0.87642 -2.70727,0.921 z" />
    <path
       inkscape:connector-curvature="0"
       id="path5065-6-41"
       sodipodi:nodetypes="ccssscccsscc"
       style="fill:#000000"
       d="m 866.13252,411.56132 c -0.63246,8.31666 -0.4352,18.98442 -1.82512,26.74958 -9.72992,-3.06745 -15.29866,0.85966 -11.36549,4.89857 2.09568,2.15209 8.8841,4.57216 13.41702,-1.81289 0.37659,-0.53047 0.86941,-2.08827 0.94948,-2.93372 0.71065,-7.50443 -0.0832,-18.44148 0.28301,-24.68313 5.43463,2.42003 12.91648,6.91636 19.77312,6.35311 -0.3425,5.15768 -2.26263,19.05206 -2.672,24.4177 -9.72993,-3.06743 -16.83033,0.1914 -13.7197,4.84881 2.13562,3.19797 14.73757,1.77147 15.38077,-3.79986 l 3.311,-28.67494 c -4.93415,3.2864 -17.1396,-3.55117 -23.53144,-5.36358 z" />
    <flowRoot
       xml:space="preserve"
       id="flowRoot3505"
       style="fill:black;stroke:none;stroke-opacity:1;stroke-width:1px;stroke-linejoin:miter;stroke-linecap:butt;fill-opacity:1;font-family:Sans;font-style:normal;font-weight:normal;font-size:40px;line-height:125%;letter-spacing:0px;word-spacing:0px"><flowRegion
         id="flowRegion3507"><rect
           id="rect3509"
           width="43.250629"
           height="93.51487"
           x="1451.8184"
           y="2607.5952" /></flowRegion><flowPara
         id="flowPara3511" /></flowRoot>  </g>
</svg>
