<?xml version="1.0" encoding="UTF-8" standalone="no"?>
<!-- Created with Inkscape (http://www.inkscape.org/) -->

<svg
   xmlns:dc="http://purl.org/dc/elements/1.1/"
   xmlns:cc="http://creativecommons.org/ns#"
   xmlns:rdf="http://www.w3.org/1999/02/22-rdf-syntax-ns#"
   xmlns:svg="http://www.w3.org/2000/svg"
   xmlns="http://www.w3.org/2000/svg"
   xmlns:xlink="http://www.w3.org/1999/xlink"
   xmlns:sodipodi="http://sodipodi.sourceforge.net/DTD/sodipodi-0.dtd"
   xmlns:inkscape="http://www.inkscape.org/namespaces/inkscape"
   id="svg2"
   version="1.1"
   inkscape:version="0.48.5 r10040"
   width="2481"
   height="3503"
   sodipodi:docname="Pepper-and-Carrot_by-David-Revoy_E09P07.svg">
  <metadata
     id="metadata8">
    <rdf:RDF>
      <cc:Work
         rdf:about="">
        <dc:format>image/svg+xml</dc:format>
        <dc:type
           rdf:resource="http://purl.org/dc/dcmitype/StillImage" />
        <dc:title />
      </cc:Work>
    </rdf:RDF>
  </metadata>
  <defs
     id="defs6" />
  <sodipodi:namedview
     pagecolor="#ffffff"
     bordercolor="#666666"
     borderopacity="1"
     objecttolerance="10"
     gridtolerance="10"
     guidetolerance="10"
     inkscape:pageopacity="0"
     inkscape:pageshadow="2"
     inkscape:window-width="1408"
     inkscape:window-height="855"
     id="namedview4"
     showgrid="false"
     inkscape:zoom="0.30245747"
     inkscape:cx="1367.915"
     inkscape:cy="717.10251"
     inkscape:window-x="53"
     inkscape:window-y="0"
     inkscape:window-maximized="0"
     inkscape:current-layer="layer1" />
  <g
     inkscape:groupmode="layer"
     id="layer2"
     inkscape:label="artwork"
     sodipodi:insensitive="true">
    <image
       sodipodi:absref="/Users/gand/Documents/Pepper&amp;Carrot/peppercarrot_ep09_translation/it/../gfx_Pepper-and-Carrot_by-David-Revoy_E09P07.png"
       xlink:href="../gfx_Pepper-and-Carrot_by-David-Revoy_E09P07.png"
       width="2481"
       height="3503"
       id="image10"
       x="0"
       y="0" />
  </g>
  <g
     inkscape:groupmode="layer"
     id="layer3"
     inkscape:label="speechbubbles" />
  <g
     inkscape:groupmode="layer"
     id="layer1"
     inkscape:label="txt">
    <path
       style="color:#000000;display:inline;overflow:visible;visibility:visible;fill:#ffffff;fill-opacity:1;fill-rule:nonzero;stroke:none;stroke-width:1px;marker:none;enable-background:accumulate"
       d="m 982.4864,127.19889 c -4.91026,15.19789 -32.60463,16.47229 -42.79971,13.38306 20.5509,17.00163 19.83445,27.56501 -8.06789,29.20518 46.79269,30.64139 8.55434,26.00463 1.01208,33.77441 36.74093,10.55969 20.30267,23.70151 13.76151,36.78394 28.66401,-8.28792 38.43713,1.21511 28.42051,17.91694 15.96642,-10.56764 28.8457,-4.39326 23.38097,15.07424 27.93273,-25.34591 61.57693,-41.71812 64.24843,2.63734 11.2546,-22.31401 22.4754,-31.74482 21.6115,-5.13073 27.8852,-34.61498 52.944,-22.15522 78.1514,-12.37172 6.6206,-10.44762 0.9039,-27.59035 28.811,-22.73682 -13.0302,-11.99371 4.2288,-17.47378 20.561,-21.70094 -21.7029,-6.25544 -25.7027,-12.70777 14.5948,-19.65149 -30.664,-0.67165 -59.2584,-2.04772 -23.2829,-25.72782 -11.2865,-0.57299 -38.065,19.18633 -25.5798,-38.63975 -19.4078,18.51215 -40.1142,28.72954 -66.0819,-10.04868 -12.2892,19.37283 -33.6046,28.95929 -42.8779,4.76107 -3.333,10.31613 -17.1533,14.19585 -28.8858,14.66635 -4.5369,-4.09777 -9.2163,-9.66356 -14.0994,-16.95565 -7.9811,15.31146 -19.9199,25.65215 -42.8779,4.76107 z"
       id="path3549-3-7"
       inkscape:connector-curvature="0"
       sodipodi:nodetypes="cccccccccccccccccccc" />
    <path
       style="color:#000000;display:inline;overflow:visible;visibility:visible;fill:#ffffff;fill-opacity:1;fill-rule:nonzero;stroke:none;stroke-width:1px;marker:none;enable-background:accumulate"
       d="m 1546.5959,307.27588 c 10.0441,-35.76408 25.8672,-34.65587 38.8655,-22.77693 9.7478,-38.61314 35.4641,-25.81184 74.1885,-27.31785 -0.6554,-14.74979 -13.0451,-32.83012 16.074,-39.12923 -12.2566,-9.95432 -9.4207,-21.32088 6.8818,-33.94792 -31.5377,3.68718 -41.7363,-1.48532 1.3873,-28.79657 -37.7676,14.21516 -73.6364,26.64994 -49.6763,-17.00889 -14.1722,4.87293 -47.5196,29.44324 -63.1735,-30.13185 -16.0977,38.75747 -31.3172,50.30525 -88.5366,21.14382 3.0496,20.77675 -2.8269,37.99536 -48.0597,26.15585 6.6814,19.15373 -25.8885,34.05214 -40.8288,35.6181 39.0771,8.72457 47.0036,20.71442 14.5099,36.13191 82.2639,10.96637 32.0218,24.52242 29.3317,36.76881 53.3651,-6.27539 44.3321,16.21402 47.2752,33.83055 51.6174,-20.10142 50.4098,-13.72805 61.761,9.4602 z"
       id="path3549-3"
       inkscape:connector-curvature="0"
       sodipodi:nodetypes="ccccccccccccccc" />
    <path
       style="fill:#ffffff;fill-rule:evenodd;stroke:none;stroke-width:1px;stroke-linecap:butt;stroke-linejoin:miter;stroke-opacity:1"
       d="m 1477.9067,463.11034 c 0,0 -54.6895,-26.58924 -42.2601,-70.59904 12.4294,-44.00979 9.9436,27.50613 42.2601,70.59904 z"
       id="path4323-7"
       inkscape:connector-curvature="0" />
    <path
       style="fill:#ffffff;fill-rule:evenodd;stroke:none;stroke-width:1px;stroke-linecap:butt;stroke-linejoin:miter;stroke-opacity:1"
       d="m 1356.5378,491.51299 c 0,0 52.4841,-55.94607 36.6214,-99.3802 -15.8626,-43.43413 24.72,8.47189 24.72,8.47189 0,0 14.669,43.08756 -61.3414,90.90831 z"
       id="path4319-8"
       inkscape:connector-curvature="0" />
    <path
       style="fill:#ffffff;fill-rule:evenodd;stroke:none;stroke-width:1px;stroke-linecap:butt;stroke-linejoin:miter;stroke-opacity:1"
       d="m 1108.7041,498.80966 c 0,0 34.8023,-68.3618 7.4576,-105.65006 -27.3447,-37.28825 26.1018,1.24294 26.1018,1.24294 0,0 26.1018,37.28826 -33.5594,104.40712 z"
       id="path4319"
       inkscape:connector-curvature="0" />
    <path
       style="fill:#ffffff;fill-rule:evenodd;stroke:none;stroke-width:1px;stroke-linecap:butt;stroke-linejoin:miter;stroke-opacity:1"
       d="m 1226.7836,471.46494 c 0,0 -54.6895,-36.04531 -42.2601,-95.70652 12.4294,-59.6612 9.9436,37.28826 42.2601,95.70652 z"
       id="path4323"
       inkscape:connector-curvature="0" />
    <path
       style="fill:#ffffff;stroke:none"
       d="m 1237.744,335.0962 c -0.8515,-28.50448 26.2812,-98.23015 144.4172,-98.2913 119.9366,-0.0621 154.1359,41.54259 156.7081,92.24268 4.0692,80.20614 -58.3208,99.64019 -147.4746,102.76282 -91.908,3.21917 -148.6243,-24.61717 -153.6507,-96.7142 z"
       id="path3280-4"
       inkscape:connector-curvature="0"
       sodipodi:nodetypes="csssc" />
    <path
       style="fill:#ffffff;stroke:none"
       d="m 975.6039,325.1971 c -0.901,-26.32275 28.1767,-99.14667 152.8043,-90.7681 124.6277,8.37856 163.0874,38.36292 165.809,85.18244 4.3055,74.06717 -61.7078,92.01375 -156.0393,94.89737 -97.2456,2.97278 -157.2557,-22.73298 -162.574,-89.31171 z"
       id="path3280"
       inkscape:connector-curvature="0"
       sodipodi:nodetypes="csssc" />
    <path
       style="fill:#ffffff;fill-rule:evenodd;stroke:none;stroke-width:1px;stroke-linecap:butt;stroke-linejoin:miter;stroke-opacity:1"
       d="m 2143.5029,1943.0428 c 0,0 -95.3399,295.8089 -414.2353,263.1064 -318.8953,-32.7025 286.0196,215.5391 414.2353,-263.1064 z"
       id="path4196"
       inkscape:connector-curvature="0" />
    <path
       style="color:#000000;fill:#ffffff;fill-opacity:1;fill-rule:nonzero;stroke:none;stroke-width:1px;marker:none;visibility:visible;display:inline;overflow:visible;enable-background:accumulate"
       d="m 1210.8918,2172.3003 c 54.944,-86.7236 171.225,-93.3354 265.3427,-99.8601 109.9685,-3.0391 225.0547,-1.3883 328.0641,39.4441 78.8685,41.2403 106.9732,161.1248 32.289,218.7511 -73.9819,57.4423 -175.847,57.3101 -266.065,58.5702 -97.184,-3.6272 -195.676,-12.0603 -289.3722,-37.881 -69.7939,-27.4885 -112.5044,-113.3895 -70.2586,-179.0243 z"
       id="path3533"
       inkscape:connector-curvature="0" />
    <path
       style="fill:#ffffff;fill-rule:evenodd;stroke:none;stroke-width:1px;stroke-linecap:butt;stroke-linejoin:miter;stroke-opacity:1"
       d="m 1560.9274,1811.2228 c 0,0 -126.2755,-97.0217 -187.8463,-99.3499 -61.5707,-2.3281 -29.5112,-37.7601 -29.5112,-37.7601 0,0 88.6993,-5.9935 217.3575,137.11 z"
       id="path4188"
       inkscape:connector-curvature="0" />
    <path
       style="color:#000000;fill:#ffffff;fill-opacity:1;fill-rule:nonzero;stroke:none;stroke-width:1px;marker:none;visibility:visible;display:inline;overflow:visible;enable-background:accumulate"
       d="m 625.36398,1648.4917 c 12.3527,-92.4229 136.98165,-158.8692 456.26182,-138.2185 171.0235,11.0612 365.3344,19.1498 349.2253,154.5631 -16.1089,135.413 -295.5313,129.0931 -353.3143,131.6773 -57.7831,2.5844 -357.9584,-14.6782 -409.35116,-61.318 -32.17067,-29.1952 -44.48772,-58.0581 -42.82166,-86.7039 z"
       id="path4546"
       inkscape:connector-curvature="0"
       sodipodi:nodetypes="cssssc" />
    <flowRoot
       xml:space="preserve"
       id="flowRoot2987-4-9-3"
       style="font-size:12px;font-style:normal;font-variant:normal;font-weight:normal;font-stretch:normal;text-align:center;line-height:125%;letter-spacing:0px;word-spacing:0px;text-anchor:middle;fill:#000000;fill-opacity:1;stroke:none;font-family:Lavi;-inkscape-font-specification:Lavi"
       transform="translate(568.41872,1289.8263)"><flowRegion
         id="flowRegion2989-5-4-5"><rect
           id="rect2991-7-9-6"
           width="721.91022"
           height="318.92026"
           x="94.835922"
           y="250.3343"
           style="font-style:normal;font-variant:normal;font-weight:normal;font-stretch:normal;text-align:center;text-anchor:middle;font-family:Lavi;-inkscape-font-specification:Lavi" /></flowRegion><flowPara
         style="font-size:48px;text-align:center;text-anchor:middle"
         id="flowPara4190">... È un vero peccato però</flowPara><flowPara
         style="font-size:48px;text-align:center;text-anchor:middle"
         id="flowPara3495">che non siamo riuscite ad evitare</flowPara><flowPara
         style="font-size:48px;text-align:center;text-anchor:middle"
         id="flowPara3497">gli effetti collaterali</flowPara><flowPara
         style="font-size:48px;text-align:center;text-anchor:middle"
         id="flowPara3048">della pozione...</flowPara></flowRoot>    <flowRoot
       xml:space="preserve"
       id="flowRoot2987-4-9-3-2"
       style="font-size:12px;font-style:normal;font-variant:normal;font-weight:normal;font-stretch:normal;text-align:center;line-height:125%;letter-spacing:0px;word-spacing:0px;text-anchor:middle;fill:#000000;fill-opacity:1;stroke:none;font-family:Lavi;-inkscape-font-specification:Lavi"
       transform="translate(1127.5909,1844.7128)"><flowRegion
         id="flowRegion2989-5-4-5-6"><rect
           id="rect2991-7-9-6-2"
           width="590.15173"
           height="262.98993"
           x="120.55251"
           y="265.53046"
           style="font-style:normal;font-variant:normal;font-weight:normal;font-stretch:normal;text-align:center;text-anchor:middle;font-family:Lavi;-inkscape-font-specification:Lavi" /></flowRegion><flowPara
         style="font-size:48px;text-align:center;text-anchor:middle"
         id="flowPara4200">Non ti preoccupare;</flowPara><flowPara
         style="font-size:48px;text-align:center;text-anchor:middle"
         id="flowPara3493">la perdita del pelo e delle piume durerà poco,</flowPara><flowPara
         style="font-size:48px;text-align:center;text-anchor:middle"
         id="flowPara3501">ricresceranno presto.</flowPara></flowRoot>    <flowRoot
       transform="matrix(1.1009585,0,-0.26823648,1.9713509,735.95253,2764.8535)"
       style="font-size:12px;font-style:normal;font-variant:normal;font-weight:normal;font-stretch:normal;text-align:center;line-height:125%;letter-spacing:0px;word-spacing:0px;text-anchor:middle;fill:#000000;fill-opacity:1;stroke:#000000;stroke-width:4.69999981;stroke-miterlimit:4;stroke-opacity:1;stroke-dasharray:none;font-family:Lavi;-inkscape-font-specification:Lavi"
       id="flowRoot4212-3-7-8-6"
       xml:space="preserve"><flowRegion
         id="flowRegion4214-6-7-8-3"><rect
           style="font-style:normal;font-variant:normal;font-weight:normal;font-stretch:normal;text-align:center;text-anchor:middle;stroke:#000000;stroke-width:4.69999981;stroke-miterlimit:4;stroke-opacity:1;stroke-dasharray:none;font-family:Lavi;-inkscape-font-specification:Lavi"
           y="265.53046"
           x="120.55251"
           height="355.03918"
           width="798.1947"
           id="rect4216-4-0-26-5" /></flowRegion><flowPara
         style="font-size:48px;text-align:center;letter-spacing:5.20896292px;text-anchor:middle;stroke:#000000;stroke-width:4.69999981;stroke-miterlimit:4;stroke-opacity:1;stroke-dasharray:none"
         id="flowPara4358-7-1">- FINE -</flowPara></flowRoot>    <flowRoot
       xml:space="preserve"
       id="flowRoot2987-4-9-3-6-3-8-7-2-7-2"
       style="font-size:7.94800568px;font-style:normal;font-variant:normal;font-weight:normal;font-stretch:normal;text-align:center;line-height:125%;letter-spacing:0px;word-spacing:0px;text-anchor:middle;opacity:0.40200004;fill:#000000;fill-opacity:1;stroke:none;font-family:Lavi;-inkscape-font-specification:Lavi"
       transform="translate(838.14746,3416.6537)"><flowRegion
         id="flowRegion2989-5-4-5-5-3-0-6-76-8-1"><rect
           id="rect2991-7-9-6-21-9-8-0-3-1-7"
           width="1557.0247"
           height="47.925102"
           x="-376.30569"
           y="-2.9480622"
           style="font-style:normal;font-variant:normal;font-weight:normal;font-stretch:normal;text-align:center;text-anchor:middle;font-family:Lavi;-inkscape-font-specification:Lavi" /></flowRegion><flowPara
         style="font-size:40px;text-align:center;text-anchor:middle;fill:#000000;fill-opacity:1"
         id="flowPara3272-6-3-1">Luglio 2015 - Disegni e sceneggiatura : David Revoy - Traduzione : Carlo Gandolfi </flowPara></flowRoot>    <flowRoot
       xml:space="preserve"
       id="flowRoot2987-4-9-3-9"
       style="font-style:normal;font-variant:normal;font-weight:normal;font-stretch:normal;font-size:12px;line-height:125%;font-family:Lavi;-inkscape-font-specification:Lavi;text-align:center;letter-spacing:0px;word-spacing:0px;text-anchor:middle;fill:#000000;fill-opacity:1;stroke:none"
       transform="matrix(1.1435621,0,0,1.1435621,699.04864,-141.00518)"><flowRegion
         id="flowRegion2989-5-4-5-8"><rect
           id="rect2991-7-9-6-21"
           width="409.9017"
           height="145.73993"
           x="120.55251"
           y="265.53046"
           style="font-style:normal;font-variant:normal;font-weight:normal;font-stretch:normal;font-family:Lavi;-inkscape-font-specification:Lavi;text-align:center;text-anchor:middle" /></flowRegion><flowPara
         style="font-size:48px;text-align:center;text-anchor:middle"
         id="flowPara3030-8-7">Super !</flowPara></flowRoot>    <flowRoot
       xml:space="preserve"
       id="flowRoot2987-4-9-3-9-2"
       style="font-size:12px;font-style:normal;font-variant:normal;font-weight:normal;font-stretch:normal;text-align:center;line-height:125%;letter-spacing:0px;word-spacing:0px;text-anchor:middle;fill:#000000;fill-opacity:1;stroke:none;font-family:Lavi;-inkscape-font-specification:Lavi"
       transform="translate(1219.642,-89.193687)"><flowRegion
         id="flowRegion2989-5-4-5-8-2"><rect
           id="rect2991-7-9-6-21-2"
           width="409.9017"
           height="145.73993"
           x="120.55251"
           y="265.53046"
           style="font-style:normal;font-variant:normal;font-weight:normal;font-stretch:normal;text-align:center;text-anchor:middle;font-family:Lavi;-inkscape-font-specification:Lavi" /></flowRegion><flowPara
         style="font-size:48px;text-align:center;text-anchor:middle"
         id="flowPara3030-8-7-7">Yahoo !</flowPara></flowRoot>    <flowRoot
       xml:space="preserve"
       id="flowRoot2987-4-9-3-9-2-2"
       style="font-size:12px;font-style:normal;font-variant:normal;font-weight:normal;font-stretch:normal;text-align:center;line-height:125%;letter-spacing:0px;word-spacing:0px;text-anchor:middle;fill:#000000;fill-opacity:1;stroke:none;font-family:Lavi;-inkscape-font-specification:Lavi"
       transform="translate(797.12501,1.3849159)"><flowRegion
         id="flowRegion2989-5-4-5-8-2-2"><rect
           id="rect2991-7-9-6-21-2-5"
           width="437.4017"
           height="148.23993"
           x="120.55251"
           y="265.53046"
           style="font-style:normal;font-variant:normal;font-weight:normal;font-stretch:normal;text-align:center;text-anchor:middle;font-family:Lavi;-inkscape-font-specification:Lavi" /></flowRegion><flowPara
         style="font-size:48px;text-align:center;text-anchor:middle"
         id="flowPara3030-8-7-7-1">Siamo</flowPara><flowPara
         style="font-size:48px;text-align:center;text-anchor:middle"
         id="flowPara3489">le migliori!</flowPara></flowRoot>    <flowRoot
       xml:space="preserve"
       id="flowRoot2987-4-9-3-9-2-2-9"
       style="font-size:12px;font-style:normal;font-variant:normal;font-weight:normal;font-stretch:normal;text-align:center;line-height:125%;letter-spacing:0px;word-spacing:0px;text-anchor:middle;fill:#000000;fill-opacity:1;stroke:none;font-family:Lavi;-inkscape-font-specification:Lavi"
       transform="translate(1136.2851,11.326323)"><flowRegion
         id="flowRegion2989-5-4-5-8-2-2-8"><rect
           id="rect2991-7-9-6-21-2-5-3"
           width="282.4017"
           height="209.28368"
           x="120.55251"
           y="265.53046"
           style="font-style:normal;font-variant:normal;font-weight:normal;font-stretch:normal;text-align:center;text-anchor:middle;font-family:Lavi;-inkscape-font-specification:Lavi" /></flowRegion><flowPara
         style="font-size:48px;text-align:center;text-anchor:middle"
         id="flowPara3481">Sono</flowPara><flowPara
         style="font-size:48px;text-align:center;text-anchor:middle"
         id="flowPara3491">guariti!</flowPara></flowRoot>    <g
       id="layer1-5"
       transform="matrix(0.09993595,-0.03471419,0.02199218,0.07732029,1625.4623,400.02)">
      <path
         inkscape:connector-curvature="0"
         id="path5065"
         sodipodi:nodetypes="ccsscccssccccccc"
         style="fill:#000000"
         d="m 374.44,235.15 c -28.01,122.41 -59.79,323.52 -95.43,421.8 -104.65,-72.46 -170.09,-41.87 -159.54,41.06 6.7707,53.218 107.92,95.879 173.7,-8.6655 39.841,-63.316 52.861,-191.32 75.437,-296.09 62.46,37.494 122.31,101.13 202.86,111.59 -16.838,75.898 -47.082,194.01 -65.21,272.82 -104.65,-72.46 -192.89,-41.986 -182.34,40.945 6.7707,53.218 177.12,90.859 205.55,-23.531 l 103.19,-415.31 c -65.16,35.4 -188.96,-100.04 -258.22,-144.62 z m 10.854,74.896 c 65.248,37.815 131,118.89 206.47,122.72 -2.5111,11.129 -2.0944,26.125 -4.5591,37.149 -77.915,-10.686 -144.21,-80.519 -211.05,-117.12 2.1323,-10.115 7.3372,-33.949 9.1345,-42.74 z" />
    </g>
    <path
       inkscape:connector-curvature="0"
       id="path5065-6"
       sodipodi:nodetypes="ccssscccsscc"
       style="fill:#000000"
       d="m 1658.6804,462.16434 c -1.8261,7.33947 -3.2225,16.89617 -5.6774,23.63608 -8.6718,-4.11357 -14.4773,-1.39189 -11.3868,2.77108 1.6467,2.2182 7.6553,5.33824 12.8536,0.27481 0.4319,-0.42068 1.1251,-1.74259 1.3255,-2.48647 1.7791,-6.60292 2.6559,-16.4844 3.9247,-22.00797 4.7388,2.92889 11.0901,8.00144 17.605,8.4663 -1.0859,4.5587 -4.9467,16.69861 -6.1262,21.43362 -8.6717,-4.11357 -15.8148,-2.20506 -13.5876,2.39426 1.5291,3.15806 13.561,3.66292 14.9902,-1.2228 l 7.3566,-25.14614 c -5.1153,2.23897 -15.5502,-5.59171 -21.2769,-8.113 z" />
    <path
       inkscape:connector-curvature="0"
       id="path5065-6-4"
       sodipodi:nodetypes="ccsssccccc"
       style="fill:#000000"
       d="m 1625.8947,385.96207 c 2.7567,10.52928 7.7574,23.71505 9.1696,33.80096 -15.4882,-0.71037 -21.8407,5.93998 -14.3433,9.70356 3.9951,2.00519 14.9246,2.84842 18.6866,-6.52484 0.3126,-0.77875 0.3399,-2.87029 0.083,-3.94574 -2.2841,-9.54586 -8.5993,-24.05044 -10.8256,-31.91837 3.4854,2.82072 5.7634,5.71207 7.0092,5.529 -0.02,-1.14139 0.4277,-2.25146 0.4667,-3.12709 -3.9535,-2.00957 -2.9622,-0.77496 -7.7804,-4.6167 -0.6703,-0.53448 -0.2798,0.8273 -2.466,1.09965 z" />
    <g
       id="layer1-5-7"
       transform="matrix(0.06843295,-0.08960639,0.06473847,0.05970609,859.00836,409.4882)">
      <path
         inkscape:connector-curvature="0"
         id="path5065-3"
         sodipodi:nodetypes="ccsscccssccccccc"
         style="fill:#000000"
         d="m 374.44,235.15 c -28.01,122.41 -59.79,323.52 -95.43,421.8 -104.65,-72.46 -170.09,-41.87 -159.54,41.06 6.7707,53.218 107.92,95.879 173.7,-8.6655 39.841,-63.316 52.861,-191.32 75.437,-296.09 62.46,37.494 122.31,101.13 202.86,111.59 -16.838,75.898 -47.082,194.01 -65.21,272.82 -104.65,-72.46 -192.89,-41.986 -182.34,40.945 6.7707,53.218 177.12,90.859 205.55,-23.531 l 103.19,-415.31 c -65.16,35.4 -188.96,-100.04 -258.22,-144.62 z m 10.854,74.896 c 65.248,37.815 131,118.89 206.47,122.72 -2.5111,11.129 -2.0944,26.125 -4.5591,37.149 -77.915,-10.686 -144.21,-80.519 -211.05,-117.12 2.1323,-10.115 7.3372,-33.949 9.1345,-42.74 z" />
    </g>
    <path
       inkscape:connector-curvature="0"
       id="path5065-6-4-1"
       sodipodi:nodetypes="ccsssccccc"
       style="fill:#000000"
       d="m 965.15141,426.25242 c 1.70973,11.89036 5.47342,26.96096 5.82391,38.20755 -16.1508,-2.58466 -23.55228,3.98259 -16.11714,8.99121 3.96193,2.6686 15.32066,4.86821 20.31253,-4.99263 0.41481,-0.81925 0.67768,-3.11419 0.52868,-4.32581 -1.32459,-10.75474 -6.31815,-27.42753 -7.77011,-36.3319 3.33661,3.50531 5.39996,6.94759 6.72593,6.89155 0.10698,-1.25644 0.70034,-2.424 0.83928,-3.38158 -3.91793,-2.66857 -3.01736,-1.19655 -7.63621,-5.97896 -0.64261,-0.66536 -0.38586,0.87642 -2.70727,0.921 z" />
    <path
       inkscape:connector-curvature="0"
       id="path5065-6-41"
       sodipodi:nodetypes="ccssscccsscc"
       style="fill:#000000"
       d="m 866.13252,411.56132 c -0.63246,8.31666 -0.4352,18.98442 -1.82512,26.74958 -9.72992,-3.06745 -15.29866,0.85966 -11.36549,4.89857 2.09568,2.15209 8.8841,4.57216 13.41702,-1.81289 0.37659,-0.53047 0.86941,-2.08827 0.94948,-2.93372 0.71065,-7.50443 -0.0832,-18.44148 0.28301,-24.68313 5.43463,2.42003 12.91648,6.91636 19.77312,6.35311 -0.3425,5.15768 -2.26263,19.05206 -2.672,24.4177 -9.72993,-3.06743 -16.83033,0.1914 -13.7197,4.84881 2.13562,3.19797 14.73757,1.77147 15.38077,-3.79986 l 3.311,-28.67494 c -4.93415,3.2864 -17.1396,-3.55117 -23.53144,-5.36358 z" />
    <flowRoot
       xml:space="preserve"
       id="flowRoot3505"
       style="fill:black;stroke:none;stroke-opacity:1;stroke-width:1px;stroke-linejoin:miter;stroke-linecap:butt;fill-opacity:1;font-family:Sans;font-style:normal;font-weight:normal;font-size:40px;line-height:125%;letter-spacing:0px;word-spacing:0px"><flowRegion
         id="flowRegion3507"><rect
           id="rect3509"
           width="43.250629"
           height="93.51487"
           x="1451.8184"
           y="2607.5952" /></flowRegion><flowPara
         id="flowPara3511" /></flowRoot>  </g>
</svg>
