<?xml version="1.0" encoding="UTF-8" standalone="no"?>
<!-- Created with Inkscape (http://www.inkscape.org/) -->

<svg
   xmlns:dc="http://purl.org/dc/elements/1.1/"
   xmlns:cc="http://creativecommons.org/ns#"
   xmlns:rdf="http://www.w3.org/1999/02/22-rdf-syntax-ns#"
   xmlns:svg="http://www.w3.org/2000/svg"
   xmlns="http://www.w3.org/2000/svg"
   xmlns:xlink="http://www.w3.org/1999/xlink"
   xmlns:sodipodi="http://sodipodi.sourceforge.net/DTD/sodipodi-0.dtd"
   xmlns:inkscape="http://www.inkscape.org/namespaces/inkscape"
   id="svg2"
   version="1.1"
   inkscape:version="0.91 r13725"
   width="2481"
   height="3503"
   sodipodi:docname="Pepper-and-Carrot_by-David-Revoy_E09P03.svg">
  <metadata
     id="metadata8">
    <rdf:RDF>
      <cc:Work
         rdf:about="">
        <dc:format>image/svg+xml</dc:format>
        <dc:type
           rdf:resource="http://purl.org/dc/dcmitype/StillImage" />
        <dc:title />
      </cc:Work>
    </rdf:RDF>
  </metadata>
  <defs
     id="defs6" />
  <sodipodi:namedview
     pagecolor="#ffffff"
     bordercolor="#666666"
     borderopacity="1"
     objecttolerance="10"
     gridtolerance="10"
     guidetolerance="10"
     inkscape:pageopacity="0"
     inkscape:pageshadow="2"
     inkscape:window-width="1366"
     inkscape:window-height="702"
     id="namedview4"
     showgrid="false"
     inkscape:zoom="0.40000001"
     inkscape:cx="1063.056"
     inkscape:cy="414.95766"
     inkscape:window-x="0"
     inkscape:window-y="27"
     inkscape:window-maximized="1"
     inkscape:current-layer="layer1" />
  <g
     inkscape:groupmode="layer"
     id="layer2"
     inkscape:label="artwork"
     sodipodi:insensitive="true">
    <image
       sodipodi:absref="/home/juanjo/Imágenes/Comics-Revoy/09/es/../gfx_Pepper-and-Carrot_by-David-Revoy_E09P03.png"
       xlink:href="../gfx_Pepper-and-Carrot_by-David-Revoy_E09P03.png"
       y="0"
       x="0"
       id="image10"
       height="3503"
       width="2481" />
  </g>
  <g
     inkscape:groupmode="layer"
     id="layer3"
     inkscape:label="speechbubbles" />
  <g
     inkscape:groupmode="layer"
     id="layer1"
     inkscape:label="txt">
    <path
       style="fill:#ffffff;fill-rule:evenodd;stroke:none;stroke-width:1px;stroke-linecap:butt;stroke-linejoin:miter;stroke-opacity:1"
       d="m 1046.0354,2648.381 c 0,0 4.2323,-19.9846 24.3358,-24.4257 20.1036,-4.4409 40.2069,12.2129 40.2069,12.2129 0,0 6.3485,-21.0949 24.3358,-22.2051 17.9873,-1.1105 37.0327,15.5435 37.0327,15.5435 0,0 4.2324,-14.4333 15.8712,-14.4333 11.6388,0 24.3357,12.2129 24.3357,12.2129 0,0 16.9292,-11.1028 30.6842,-11.1028 13.755,0 37.0327,11.1028 37.0327,11.1028 0,0 9.5227,-7.7718 20.1035,-7.7718 10.5808,0 26.4519,13.3231 26.4519,13.3231 0,0 12.6969,-18.8744 26.4519,-17.7642 13.7551,1.1101 31.7422,15.5435 31.7422,15.5435 0,0 16.9292,-11.1024 26.4521,-8.882 9.5226,2.2205 28.568,18.8745 28.568,18.8745 0,0 1.058,-5.5514 11.6389,-2.2206 10.5808,3.3308 17.9872,12.2129 17.9872,12.2129 0,0 19.0455,-5.5513 33.8584,11.1026 14.8131,16.654 12.6971,36.6387 12.6971,36.6387 0,0 7.4065,14.4333 7.4065,25.5358 0,11.1028 -10.5808,21.0951 -10.5808,21.0951 0,0 15.8712,24.4257 7.4065,45.5207 -8.4645,21.0949 -21.1615,19.9847 -21.1615,19.9847 0,0 2.1161,11.1026 -2.1161,14.4334 -4.2323,3.3308 -17.9873,4.4411 -17.9873,4.4411 0,0 3.1742,12.2128 -15.8712,27.7564 -19.0453,15.5438 -62.4266,18.8745 -62.4266,18.8745 0,0 -13.7549,17.7641 -31.7424,24.4257 -17.9871,6.6616 -43.3809,1.1104 -43.3809,1.1104 0,0 -6.3487,18.8743 -27.51,21.0949 -21.1616,2.2205 -55.0201,-12.2129 -55.0201,-12.2129 0,0 -24.3358,23.3155 -46.5554,17.7642 -22.2196,-5.5513 -30.6841,-17.7642 -30.6841,-17.7642 0,0 -19.0454,6.6616 -39.1489,-2.2204 -20.1035,-8.8822 -26.452,-22.2053 -26.452,-22.2053 0,0 -24.3358,4.441 -41.2649,0 -16.9293,-4.441 -32.8004,-26.6463 -32.8004,-26.6463 0,0 -26.45202,-3.3307 -42.32317,-22.2052 -15.87108,-18.8746 -12.6969,-43.3002 -12.6969,-43.3002 0,0 -20.10344,-21.095 -17.98728,-35.5284 2.11614,-14.4333 17.98728,-32.1975 17.98728,-32.1975 0,0 -9.52267,-13.3232 -6.34844,-22.2053 3.17426,-8.882 15.87117,-13.3231 15.87117,-13.3231 0,0 -15.87117,-26.6463 12.69689,-43.3002 28.56815,-16.654 52.90385,1.1102 52.90385,1.1102 z"
       id="path4136"
       inkscape:connector-curvature="0" />
    <path
       style="fill:#ffffff;fill-rule:evenodd;stroke:none;stroke-width:1px;stroke-linecap:butt;stroke-linejoin:miter;stroke-opacity:1"
       d="m 1433.1958,2917.298 c 0,0 6.896,-20.2401 28.3503,-10.1201 21.4544,10.1201 13.7921,23.3539 13.7921,23.3539 0,0 23.7531,10.8985 6.896,23.3539 -16.857,12.4555 -35.2464,4.6708 -35.2464,4.6708 0,0 -39.8438,9.3416 -48.2723,-17.1262 -8.4285,-26.4677 34.4803,-24.1323 34.4803,-24.1323 z"
       id="path4138"
       inkscape:connector-curvature="0" />
    <path
       style="fill:#ffffff;fill-rule:evenodd;stroke:none;stroke-width:1px;stroke-linecap:butt;stroke-linejoin:miter;stroke-opacity:1"
       d="m 1520.9124,2978.6737 c 0,0 6.8862,-6.9242 15.8384,0.5769 8.9521,7.5013 3.443,13.2714 3.443,13.2714 0,0 6.1977,10.9633 -6.1976,14.4254 -12.3953,3.4621 -21.3474,-5.7701 -21.3474,-5.7701 0,0 -24.1019,1.731 -22.036,-15.0025 2.0659,-16.7334 19.9701,-17.3104 30.2996,-7.5011 z"
       id="path4140"
       inkscape:connector-curvature="0" />
    <flowRoot
       xml:space="preserve"
       id="flowRoot2987-4-9-3"
       style="font-style:normal;font-variant:normal;font-weight:normal;font-stretch:normal;font-size:12px;line-height:125%;font-family:Lavi;-inkscape-font-specification:Lavi;text-align:center;letter-spacing:0px;word-spacing:0px;text-anchor:middle;fill:#000000;fill-opacity:1;stroke:none"
       transform="translate(822.91194,2387.9931)"><flowRegion
         id="flowRegion2989-5-4-5"><rect
           id="rect2991-7-9-6"
           width="602.40173"
           height="310.73996"
           x="120.55251"
           y="265.53046"
           style="font-style:normal;font-variant:normal;font-weight:normal;font-stretch:normal;font-family:Lavi;-inkscape-font-specification:Lavi;text-align:center;text-anchor:middle" /></flowRegion><flowPara
         style="font-size:48px;text-align:center;text-anchor:middle"
         id="flowPara3030-8">¡ Pepper, estúpida !</flowPara><flowPara
         style="font-size:48px;text-align:center;text-anchor:middle"
         id="flowPara4154">Ahora es demasiado</flowPara><flowPara
         style="font-size:48px;text-align:center;text-anchor:middle"
         id="flowPara4156">tarde, todas me </flowPara><flowPara
         style="font-size:48px;text-align:center;text-anchor:middle"
         id="flowPara4158">odian ...</flowPara></flowRoot>  </g>
</svg>
