<?xml version="1.0" encoding="UTF-8" standalone="no"?>
<!-- Created with Inkscape (http://www.inkscape.org/) -->

<svg
   xmlns:dc="http://purl.org/dc/elements/1.1/"
   xmlns:cc="http://creativecommons.org/ns#"
   xmlns:rdf="http://www.w3.org/1999/02/22-rdf-syntax-ns#"
   xmlns:svg="http://www.w3.org/2000/svg"
   xmlns="http://www.w3.org/2000/svg"
   xmlns:xlink="http://www.w3.org/1999/xlink"
   xmlns:sodipodi="http://sodipodi.sourceforge.net/DTD/sodipodi-0.dtd"
   xmlns:inkscape="http://www.inkscape.org/namespaces/inkscape"
   id="svg2"
   version="1.1"
   inkscape:version="0.91 r13725"
   width="2481"
   height="3503"
   sodipodi:docname="Pepper-and-Carrot_by-David-Revoy_E09P03.svg">
  <metadata
     id="metadata8">
    <rdf:RDF>
      <cc:Work
         rdf:about="">
        <dc:format>image/svg+xml</dc:format>
        <dc:type
           rdf:resource="http://purl.org/dc/dcmitype/StillImage" />
        <dc:title />
      </cc:Work>
    </rdf:RDF>
  </metadata>
  <defs
     id="defs6" />
  <sodipodi:namedview
     pagecolor="#ffffff"
     bordercolor="#666666"
     borderopacity="1"
     objecttolerance="10"
     gridtolerance="10"
     guidetolerance="10"
     inkscape:pageopacity="0"
     inkscape:pageshadow="2"
     inkscape:window-width="1600"
     inkscape:window-height="832"
     id="namedview4"
     showgrid="false"
     inkscape:zoom="0.40000001"
     inkscape:cx="1231.5664"
     inkscape:cy="622.45765"
     inkscape:window-x="1276"
     inkscape:window-y="0"
     inkscape:window-maximized="1"
     inkscape:current-layer="layer1" />
  <g
     inkscape:groupmode="layer"
     id="layer2"
     inkscape:label="artwork"
     sodipodi:insensitive="true">
    <image
       sodipodi:absref="/home/willem/Git/peppercarrot_ep09_translation/nl/../gfx_Pepper-and-Carrot_by-David-Revoy_E09P03.png"
       xlink:href="../gfx_Pepper-and-Carrot_by-David-Revoy_E09P03.png"
       width="2481"
       height="3503"
       id="image10"
       x="0"
       y="0" />
  </g>
  <g
     inkscape:groupmode="layer"
     id="layer3"
     inkscape:label="speechbubbles" />
  <g
     inkscape:groupmode="layer"
     id="layer1"
     inkscape:label="txt">
    <path
       style="fill:#ffffff;fill-rule:evenodd;stroke:none;stroke-width:1px;stroke-linecap:butt;stroke-linejoin:miter;stroke-opacity:1"
       d="m 1005.8451,2638.3423 c 0,0 4.6774,-21.4115 26.8953,-26.1697 22.2181,-4.758 44.4359,13.085 44.4359,13.085 0,0 7.0161,-22.6013 26.8953,-23.7907 19.8792,-1.1898 40.9278,16.6534 40.9278,16.6534 0,0 4.6775,-15.464 17.5405,-15.464 12.8629,0 26.8953,13.0851 26.8953,13.0851 0,0 18.7098,-11.8956 33.9115,-11.8956 15.2018,0 40.9277,11.8956 40.9277,11.8956 0,0 10.5243,-8.3268 22.218,-8.3268 11.6936,0 29.2341,14.2744 29.2341,14.2744 0,0 14.0323,-20.2221 29.2341,-19.0327 15.2017,1.1895 35.0808,16.6534 35.0808,16.6534 0,0 18.7098,-11.8951 29.2342,-9.5162 10.5242,2.3791 31.5728,20.2222 31.5728,20.2222 0,0 1.1692,-5.9478 12.863,-2.3791 11.6936,3.5686 19.8791,13.0849 19.8791,13.0849 0,0 21.0486,-5.9477 37.4196,11.8954 16.3711,17.8431 14.0325,39.2548 14.0325,39.2548 0,0 8.1855,15.4638 8.1855,27.3591 0,11.8956 -11.6937,22.6014 -11.6937,22.6014 0,0 17.5405,26.1698 8.1856,48.771 -9.3549,22.6012 -23.3873,21.4117 -23.3873,21.4117 0,0 2.3387,11.8954 -2.3387,15.464 -4.6774,3.5687 -19.8792,4.7582 -19.8792,4.7582 0,0 3.5081,13.0848 -17.5405,29.7383 -21.0484,16.6537 -68.9924,20.2222 -68.9924,20.2222 0,0 -15.2017,19.0326 -35.081,26.1697 -19.8791,7.1373 -47.9437,1.1898 -47.9437,1.1898 0,0 -7.0164,20.2219 -30.4035,22.6011 -23.3873,2.379 -60.807,-13.0849 -60.807,-13.0849 0,0 -26.8954,24.9803 -51.452,19.0326 -24.5566,-5.9477 -33.9115,-19.0326 -33.9115,-19.0326 0,0 -21.0485,7.1372 -43.2664,-2.379 -22.218,-9.5164 -29.2342,-23.7908 -29.2342,-23.7908 0,0 -26.8954,4.7581 -45.6051,0 -18.7099,-4.7581 -36.2503,-28.549 -36.2503,-28.549 0,0 -29.23417,-3.5684 -46.77464,-23.7907 -17.54037,-20.2223 -14.03234,-46.392 -14.03234,-46.392 0,0 -22.21789,-22.6012 -19.87916,-38.0652 2.33872,-15.4639 19.87916,-34.4965 19.87916,-34.4965 0,0 -10.52425,-14.2746 -7.01616,-23.7908 3.50813,-9.5162 17.54047,-14.2744 17.54047,-14.2744 0,0 -17.54047,-28.549 14.03233,-46.3921 31.57284,-17.8431 58.46824,1.1895 58.46824,1.1895 z"
       id="path4136"
       inkscape:connector-curvature="0" />
    <path
       style="fill:#ffffff;fill-rule:evenodd;stroke:none;stroke-width:1px;stroke-linecap:butt;stroke-linejoin:miter;stroke-opacity:1"
       d="m 1433.1958,2917.298 c 0,0 6.896,-20.2401 28.3503,-10.1201 21.4544,10.1201 13.7921,23.3539 13.7921,23.3539 0,0 23.7531,10.8985 6.896,23.3539 -16.857,12.4555 -35.2464,4.6708 -35.2464,4.6708 0,0 -39.8438,9.3416 -48.2723,-17.1262 -8.4285,-26.4677 34.4803,-24.1323 34.4803,-24.1323 z"
       id="path4138"
       inkscape:connector-curvature="0" />
    <path
       style="fill:#ffffff;fill-rule:evenodd;stroke:none;stroke-width:1px;stroke-linecap:butt;stroke-linejoin:miter;stroke-opacity:1"
       d="m 1520.9124,2978.6737 c 0,0 6.8862,-6.9242 15.8384,0.5769 8.9521,7.5013 3.443,13.2714 3.443,13.2714 0,0 6.1977,10.9633 -6.1976,14.4254 -12.3953,3.4621 -21.3474,-5.7701 -21.3474,-5.7701 0,0 -24.1019,1.731 -22.036,-15.0025 2.0659,-16.7334 19.9701,-17.3104 30.2996,-7.5011 z"
       id="path4140"
       inkscape:connector-curvature="0" />
    <flowRoot
       xml:space="preserve"
       id="flowRoot2987-4-9-3"
       style="font-style:normal;font-variant:normal;font-weight:normal;font-stretch:normal;font-size:12px;line-height:125%;font-family:Lavi;-inkscape-font-specification:Lavi;text-align:center;letter-spacing:0px;word-spacing:0px;text-anchor:middle;fill:#000000;fill-opacity:1;stroke:none"
       transform="translate(835.41194,2355.4931)"><flowRegion
         id="flowRegion2989-5-4-5"><rect
           id="rect2991-7-9-6"
           width="544.90173"
           height="270.73993"
           x="115.55251"
           y="285.53046"
           style="font-style:normal;font-variant:normal;font-weight:normal;font-stretch:normal;font-family:Lavi;-inkscape-font-specification:Lavi;text-align:center;text-anchor:middle" /></flowRegion><flowPara
         style="font-size:48px;text-align:center;text-anchor:middle"
         id="flowPara7642">Nou, goed voor</flowPara><flowPara
         style="font-size:48px;text-align:center;text-anchor:middle"
         id="flowPara3483">elkaar Pepper! Nu hebben ze natuurlijk een hekel aan me...</flowPara></flowRoot>  </g>
</svg>
