<?xml version="1.0" encoding="UTF-8" standalone="no"?>
<!-- Created with Inkscape (http://www.inkscape.org/) -->

<svg
   xmlns:dc="http://purl.org/dc/elements/1.1/"
   xmlns:cc="http://creativecommons.org/ns#"
   xmlns:rdf="http://www.w3.org/1999/02/22-rdf-syntax-ns#"
   xmlns:svg="http://www.w3.org/2000/svg"
   xmlns="http://www.w3.org/2000/svg"
   xmlns:xlink="http://www.w3.org/1999/xlink"
   xmlns:sodipodi="http://sodipodi.sourceforge.net/DTD/sodipodi-0.dtd"
   xmlns:inkscape="http://www.inkscape.org/namespaces/inkscape"
   id="svg2"
   version="1.1"
   inkscape:version="0.91 r13725"
   width="2481"
   height="3503"
   sodipodi:docname="Pepper-and-Carrot_by-David-Revoy_E09P03.svg">
  <metadata
     id="metadata8">
    <rdf:RDF>
      <cc:Work
         rdf:about="">
        <dc:format>image/svg+xml</dc:format>
        <dc:type
           rdf:resource="http://purl.org/dc/dcmitype/StillImage" />
        <dc:title />
      </cc:Work>
    </rdf:RDF>
  </metadata>
  <defs
     id="defs6" />
  <sodipodi:namedview
     pagecolor="#ffffff"
     bordercolor="#666666"
     borderopacity="1"
     objecttolerance="10"
     gridtolerance="10"
     guidetolerance="10"
     inkscape:pageopacity="0"
     inkscape:pageshadow="2"
     inkscape:window-width="1366"
     inkscape:window-height="746"
     id="namedview4"
     showgrid="false"
     inkscape:zoom="0.40000001"
     inkscape:cx="929.06642"
     inkscape:cy="660.02721"
     inkscape:window-x="-8"
     inkscape:window-y="-8"
     inkscape:window-maximized="1"
     inkscape:current-layer="layer1" />
  <g
     inkscape:groupmode="layer"
     id="layer2"
     inkscape:label="artwork"
     sodipodi:insensitive="true">
    <image
       sodipodi:absref="C:\Users\Cindy\Desktop\peppercarrot_ep09_translation-master\id\..\gfx_Pepper-and-Carrot_by-David-Revoy_E09P03.png"
       xlink:href="../gfx_Pepper-and-Carrot_by-David-Revoy_E09P03.png"
       width="2481"
       height="3503"
       id="image10"
       x="0"
       y="0" />
  </g>
  <g
     inkscape:groupmode="layer"
     id="layer3"
     inkscape:label="speechbubbles" />
  <g
     inkscape:groupmode="layer"
     id="layer1"
     inkscape:label="txt">
    <path
       style="fill:#ffffff;fill-rule:evenodd;stroke:none;stroke-width:1px;stroke-linecap:butt;stroke-linejoin:miter;stroke-opacity:1"
       d="m 1007.4325,2659.5136 c 0,0 4.8628,-19.1919 27.9618,-23.4568 23.0991,-4.2647 46.1979,11.7284 46.1979,11.7284 0,0 7.2943,-20.258 27.9618,-21.3242 20.6675,-1.0665 42.5507,14.9269 42.5507,14.9269 0,0 4.863,-13.8607 18.2361,-13.8607 13.3729,0 27.9618,11.7284 27.9618,11.7284 0,0 19.4517,-10.6624 35.2562,-10.6624 15.8046,0 42.5506,10.6624 42.5506,10.6624 0,0 10.9416,-7.4635 23.099,-7.4635 12.1573,0 30.3934,12.7946 30.3934,12.7946 0,0 14.5887,-18.1257 30.3933,-17.0595 15.8045,1.066 36.4719,14.9269 36.4719,14.9269 0,0 19.4517,-10.662 30.3934,-8.5297 10.9416,2.1324 32.8248,18.1258 32.8248,18.1258 0,0 1.2156,-5.3312 13.3731,-2.1325 12.1573,3.1986 20.6674,11.7284 20.6674,11.7284 0,0 21.8832,-5.3311 38.9034,10.6622 17.0202,15.9933 14.5889,35.1853 14.5889,35.1853 0,0 8.5101,13.8607 8.5101,24.5228 0,10.6624 -12.1574,20.2583 -12.1574,20.2583 0,0 18.236,23.4568 8.5102,43.715 -9.7259,20.258 -24.3147,19.1919 -24.3147,19.1919 0,0 2.4314,10.6622 -2.4314,13.8608 -4.8629,3.1987 -20.6675,4.265 -20.6675,4.265 0,0 3.6472,11.7283 -18.2361,26.6553 -21.883,14.9272 -71.7282,18.1258 -71.7282,18.1258 0,0 -15.8045,17.0594 -36.4721,23.4568 -20.6673,6.3973 -49.8448,1.0663 -49.8448,1.0663 0,0 -7.2946,18.1256 -31.6091,20.2581 -24.3147,2.1324 -63.2182,-11.7284 -63.2182,-11.7284 0,0 -27.9619,22.3906 -53.4923,17.0595 -25.5303,-5.3311 -35.2562,-17.0595 -35.2562,-17.0595 0,0 -21.8831,6.3973 -44.9821,-2.1323 -23.099,-8.5299 -30.3934,-21.3245 -30.3934,-21.3245 0,0 -27.9619,4.2648 -47.4135,0 -19.4518,-4.2648 -37.68776,-25.5893 -37.68776,-25.5893 0,0 -30.39341,-3.1986 -48.62943,-21.3243 -18.23591,-18.1259 -14.58877,-41.5826 -14.58877,-41.5826 0,0 -23.09891,-20.2582 -20.66744,-34.119 2.43146,-13.8608 20.66744,-30.9203 20.66744,-30.9203 0,0 -10.94157,-12.7947 -7.29438,-21.3244 3.64724,-8.5297 18.23602,-12.7946 18.23602,-12.7946 0,0 -18.23602,-25.5893 14.58876,-41.5826 32.82482,-15.9933 60.78676,1.0662 60.78676,1.0662 z"
       id="path4136"
       inkscape:connector-curvature="0" />
    <path
       style="fill:#ffffff;fill-rule:evenodd;stroke:none;stroke-width:1px;stroke-linecap:butt;stroke-linejoin:miter;stroke-opacity:1"
       d="m 1433.1958,2917.298 c 0,0 6.896,-20.2401 28.3503,-10.1201 21.4544,10.1201 13.7921,23.3539 13.7921,23.3539 0,0 23.7531,10.8985 6.896,23.3539 -16.857,12.4555 -35.2464,4.6708 -35.2464,4.6708 0,0 -39.8438,9.3416 -48.2723,-17.1262 -8.4285,-26.4677 34.4803,-24.1323 34.4803,-24.1323 z"
       id="path4138"
       inkscape:connector-curvature="0" />
    <path
       style="fill:#ffffff;fill-rule:evenodd;stroke:none;stroke-width:1px;stroke-linecap:butt;stroke-linejoin:miter;stroke-opacity:1"
       d="m 1520.9124,2978.6737 c 0,0 6.8862,-6.9242 15.8384,0.5769 8.9521,7.5013 3.443,13.2714 3.443,13.2714 0,0 6.1977,10.9633 -6.1976,14.4254 -12.3953,3.4621 -21.3474,-5.7701 -21.3474,-5.7701 0,0 -24.1019,1.731 -22.036,-15.0025 2.0659,-16.7334 19.9701,-17.3104 30.2996,-7.5011 z"
       id="path4140"
       inkscape:connector-curvature="0" />
    <flowRoot
       xml:space="preserve"
       id="flowRoot2987-4-9-3"
       style="font-style:normal;font-variant:normal;font-weight:normal;font-stretch:normal;font-size:12px;line-height:125%;font-family:Lavi;-inkscape-font-specification:Lavi;text-align:center;letter-spacing:0px;word-spacing:0px;text-anchor:middle;fill:#000000;fill-opacity:1;stroke:none"
       transform="translate(807.91194,2395.4931)"><flowRegion
         id="flowRegion2989-5-4-5"><rect
           id="rect2991-7-9-6"
           width="604.90173"
           height="240.73993"
           x="115.55251"
           y="285.53046"
           style="font-style:normal;font-variant:normal;font-weight:normal;font-stretch:normal;font-family:Lavi;-inkscape-font-specification:Lavi;text-align:center;text-anchor:middle" /></flowRegion><flowPara
         style="font-size:48px;line-height:124.00000095%;text-align:center;text-anchor:middle"
         id="flowPara3030-8">Kamu bodoh sekali Pepper!</flowPara><flowPara
         style="font-size:48px;line-height:124.00000095%;text-align:center;text-anchor:middle"
         id="flowPara3483">Sudah terlambat, mereka semua membenciku...</flowPara></flowRoot>  </g>
</svg>
