<?xml version="1.0" encoding="UTF-8" standalone="no"?>
<!-- Created with Inkscape (http://www.inkscape.org/) -->

<svg
   xmlns:dc="http://purl.org/dc/elements/1.1/"
   xmlns:cc="http://creativecommons.org/ns#"
   xmlns:rdf="http://www.w3.org/1999/02/22-rdf-syntax-ns#"
   xmlns:svg="http://www.w3.org/2000/svg"
   xmlns="http://www.w3.org/2000/svg"
   xmlns:xlink="http://www.w3.org/1999/xlink"
   xmlns:sodipodi="http://sodipodi.sourceforge.net/DTD/sodipodi-0.dtd"
   xmlns:inkscape="http://www.inkscape.org/namespaces/inkscape"
   id="svg2"
   version="1.1"
   inkscape:version="0.92.1 r15371"
   width="2646.3999"
   height="3736.5334"
   sodipodi:docname="Pepper-and-Carrot_by-David-Revoy_E09P07.svg">
  <metadata
     id="metadata8">
    <rdf:RDF>
      <cc:Work
         rdf:about="">
        <dc:format>image/svg+xml</dc:format>
        <dc:type
           rdf:resource="http://purl.org/dc/dcmitype/StillImage" />
        <dc:title />
      </cc:Work>
    </rdf:RDF>
  </metadata>
  <defs
     id="defs6" />
  <sodipodi:namedview
     pagecolor="#ffffff"
     bordercolor="#666666"
     borderopacity="1"
     objecttolerance="10"
     gridtolerance="10"
     guidetolerance="10"
     inkscape:pageopacity="0"
     inkscape:pageshadow="2"
     inkscape:window-width="1305"
     inkscape:window-height="744"
     id="namedview4"
     showgrid="false"
     inkscape:zoom="0.15122874"
     inkscape:cx="1143.6421"
     inkscape:cy="1038.0619"
     inkscape:window-x="61"
     inkscape:window-y="24"
     inkscape:window-maximized="1"
     inkscape:current-layer="layer1" />
  <g
     inkscape:groupmode="layer"
     id="layer2"
     inkscape:label="artwork"
     sodipodi:insensitive="true">
    <image
       sodipodi:absref="/home/emmiline/Documents/git/peppercarrot/peppercarrot_ep09_translation/da/../gfx_Pepper-and-Carrot_by-David-Revoy_E09P07.png"
       xlink:href="../gfx_Pepper-and-Carrot_by-David-Revoy_E09P07.png"
       width="2646.3999"
       height="3736.5334"
       id="image10"
       x="0"
       y="0" />
  </g>
  <g
     inkscape:groupmode="layer"
     id="layer3"
     inkscape:label="speechbubbles" />
  <g
     inkscape:groupmode="layer"
     id="layer1"
     inkscape:label="txt">
    <path
       style="color:#000000;display:inline;overflow:visible;visibility:visible;fill:#ffffff;fill-opacity:1;fill-rule:nonzero;stroke:none;stroke-width:1.06666672px;marker:none;enable-background:accumulate"
       d="m 1047.9855,135.67882 c -5.2376,16.21108 -34.7783,17.57044 -45.653,14.27526 21.9209,18.13507 21.1567,29.40268 -8.60578,31.15219 49.91218,32.68415 9.12458,27.73827 1.07955,36.02604 39.19033,11.26367 21.65623,25.28161 14.67893,39.2362 30.575,-8.84045 40.9996,1.29612 30.3152,19.1114 17.0309,-11.27214 30.7688,-4.68614 24.9397,16.07919 29.7949,-27.03563 65.6821,-44.49932 68.5317,2.81317 12.0049,-23.80161 23.9737,-33.86114 23.0523,-5.47278 29.7442,-36.92265 56.4736,-23.63224 83.3614,-13.1965 7.062,-11.14413 0.9642,-29.42971 30.7318,-24.25261 -13.8989,-12.79329 4.5107,-18.6387 21.9317,-23.14767 -23.1497,-6.67247 -27.4162,-13.55496 15.5678,-20.96159 -32.7083,-0.71643 -63.209,-2.18423 -24.8351,-27.44301 -12.0389,-0.61119 -40.6027,20.46542 -27.2851,-41.21573 -20.7017,19.74629 -42.7885,30.64484 -70.4874,-10.71859 -13.1085,20.66435 -35.8449,30.88991 -45.7364,5.07847 -3.5552,11.00387 -18.2969,15.14224 -30.8115,15.64411 -4.8394,-4.37096 -9.8307,-10.3078 -15.0394,-18.08603 -8.5132,16.33223 -21.2479,27.36229 -45.7364,5.07848 z"
       id="path3549-3-7"
       inkscape:connector-curvature="0"
       sodipodi:nodetypes="cccccccccccccccccccc" />
    <path
       style="color:#000000;display:inline;overflow:visible;visibility:visible;fill:#ffffff;fill-opacity:1;fill-rule:nonzero;stroke:none;stroke-width:1.06666672px;marker:none;enable-background:accumulate"
       d="m 1649.7023,327.76094 c 10.7137,-38.14835 27.5917,-36.96626 41.4565,-24.29539 10.3977,-41.18735 37.8284,-27.53263 79.1344,-29.13904 -0.6991,-15.73311 -13.9147,-35.0188 17.1456,-41.73785 -13.0737,-10.61794 -10.0487,-22.74227 7.3406,-36.21111 -33.6402,3.93299 -44.5187,-1.58434 1.4798,-30.71634 -40.2854,15.16283 -78.5455,28.4266 -52.9881,-18.14282 -15.117,5.19779 -50.6875,31.40612 -67.385,-32.14064 -17.1709,41.3413 -33.405,53.65893 -94.4391,22.55341 3.2529,22.16186 -3.0153,40.52838 -51.2636,27.89957 7.1268,20.43065 -27.6144,36.32228 -43.5508,37.99264 41.6823,9.30621 50.1372,22.09538 15.4773,38.5407 87.7481,11.69747 34.1566,26.15725 31.2871,39.22007 56.9228,-6.69375 47.2876,17.29495 50.4269,36.08592 55.0586,-21.44152 53.7704,-14.64325 65.8784,10.09088 z"
       id="path3549-3"
       inkscape:connector-curvature="0"
       sodipodi:nodetypes="ccccccccccccccc" />
    <path
       style="fill:#ffffff;fill-rule:evenodd;stroke:none;stroke-width:1.06666672px;stroke-linecap:butt;stroke-linejoin:miter;stroke-opacity:1"
       d="m 1576.4338,493.98436 c 0,0 -58.3355,-28.36185 -45.0774,-75.30564 13.258,-46.94378 10.6065,29.33987 45.0774,75.30564 z"
       id="path4323-7"
       inkscape:connector-curvature="0" />
    <path
       style="fill:#ffffff;fill-rule:evenodd;stroke:none;stroke-width:1.06666672px;stroke-linecap:butt;stroke-linejoin:miter;stroke-opacity:1"
       d="m 1446.9737,524.28052 c 0,0 55.983,-59.67581 39.0628,-106.00554 -16.9201,-46.32974 26.368,9.03668 26.368,9.03668 0,0 15.6469,45.96006 -65.4308,96.96886 z"
       id="path4319-8"
       inkscape:connector-curvature="0" />
    <path
       style="fill:#ffffff;fill-rule:evenodd;stroke:none;stroke-width:1.06666672px;stroke-linecap:butt;stroke-linejoin:miter;stroke-opacity:1"
       d="m 1182.6177,532.06364 c 0,0 37.1225,-72.91926 7.9548,-112.6934 -29.1677,-39.77413 27.8419,1.3258 27.8419,1.3258 0,0 27.8419,39.77415 -35.7967,111.3676 z"
       id="path4319"
       inkscape:connector-curvature="0" />
    <path
       style="fill:#ffffff;fill-rule:evenodd;stroke:none;stroke-width:1.06666672px;stroke-linecap:butt;stroke-linejoin:miter;stroke-opacity:1"
       d="m 1308.5692,502.89594 c 0,0 -58.3355,-38.44833 -45.0775,-102.08696 13.2581,-63.63861 10.6065,39.77415 45.0775,102.08696 z"
       id="path4323"
       inkscape:connector-curvature="0" />
    <path
       style="fill:#ffffff;stroke:none;stroke-width:1.06666672"
       d="m 1320.2603,357.43595 c -0.9083,-30.40478 28.0332,-104.77883 154.045,-104.84406 127.9324,-0.0662 164.4116,44.3121 167.1553,98.3922 4.3405,85.55321 -62.2089,106.28286 -157.3063,109.61367 -98.0352,3.43378 -158.5325,-26.25831 -163.894,-103.16181 z"
       id="path3280-4"
       inkscape:connector-curvature="0"
       sodipodi:nodetypes="csssc" />
    <path
       style="fill:#ffffff;stroke:none;stroke-width:1.06666672"
       d="m 1040.6442,346.87691 c -0.9611,-28.0776 30.0551,-105.75645 162.9912,-96.81931 132.9362,8.93713 173.9599,40.92045 176.8629,90.86127 4.5926,79.00498 -65.8216,98.148 -166.4419,101.22386 -103.7286,3.17097 -167.7394,-24.24851 -173.4122,-95.26582 z"
       id="path3280"
       inkscape:connector-curvature="0"
       sodipodi:nodetypes="csssc" />
    <path
       style="fill:#ffffff;fill-rule:evenodd;stroke:none;stroke-width:1.06666672px;stroke-linecap:butt;stroke-linejoin:miter;stroke-opacity:1"
       d="m 2286.4031,2072.579 c 0,0 -101.6959,315.5295 -441.851,280.6468 -340.155,-34.8827 305.0876,229.9084 441.851,-280.6468 z"
       id="path4196"
       inkscape:connector-curvature="0" />
    <path
       style="color:#000000;display:inline;overflow:visible;visibility:visible;fill:#ffffff;fill-opacity:1;fill-rule:nonzero;stroke:none;stroke-width:1.06666672px;marker:none;enable-background:accumulate"
       d="m 1291.6179,2307.322 c 58.607,-99.2429 182.64,-106.8091 283.0322,-114.2757 117.2998,-3.4779 240.0584,-1.5887 349.9351,45.1381 84.1264,47.1937 114.1047,184.3845 34.4416,250.3296 -78.9141,65.7345 -187.5702,65.5833 -283.8027,67.0253 -103.6629,-4.1508 -208.7211,-13.8013 -308.6637,-43.3494 -74.4468,-31.4568 -120.0047,-129.7582 -74.9425,-204.8679 z"
       id="path3533"
       inkscape:connector-curvature="0" />
    <path
       style="fill:#ffffff;fill-rule:evenodd;stroke:none;stroke-width:1.06666672px;stroke-linecap:butt;stroke-linejoin:miter;stroke-opacity:1"
       d="m 1664.9892,1931.971 c 0,0 -134.6938,-103.4898 -200.3694,-105.9732 -65.6754,-2.4833 -31.4786,-40.2775 -31.4786,-40.2775 0,0 94.6126,-6.393 231.848,146.2507 z"
       id="path4188"
       inkscape:connector-curvature="0" />
    <path
       style="color:#000000;display:inline;overflow:visible;visibility:visible;fill:#ffffff;fill-opacity:1;fill-rule:nonzero;stroke:none;stroke-width:0.90639001px;marker:none;enable-background:accumulate"
       d="m 765.00275,1772.3727 c 11.02765,-93.9898 122.28748,-161.5624 407.31805,-140.5617 152.6777,11.2487 326.1447,19.4744 311.7636,157.1834 -14.3809,137.7085 -263.8294,131.2815 -315.414,133.9095 -51.5846,2.6283 -319.5597,-14.9271 -365.4395,-62.3575 -28.71971,-29.6902 -39.71547,-59.0424 -38.22815,-88.1737 z"
       id="path4546"
       inkscape:connector-curvature="0"
       sodipodi:nodetypes="cssssc" />
    <flowRoot
       xml:space="preserve"
       id="flowRoot2987-4-9-3"
       style="font-style:normal;font-variant:normal;font-weight:normal;font-stretch:normal;font-size:12.80000019px;line-height:0.01%;font-family:Lavi;-inkscape-font-specification:Lavi;text-align:center;letter-spacing:0px;word-spacing:0px;text-anchor:middle;fill:#000000;fill-opacity:1;stroke:none;stroke-width:1.06666672"
       transform="translate(11.689359,26.621282)"><flowRegion
         id="flowRegion2989-5-4-5"
         style="stroke-width:1.06666672"><rect
           id="rect2991-7-9-6"
           width="709.22852"
           height="323.45593"
           x="759.58929"
           y="1652.6472"
           style="font-style:normal;font-variant:normal;font-weight:normal;font-stretch:normal;font-family:Lavi;-inkscape-font-specification:Lavi;text-align:center;text-anchor:middle;stroke-width:1.13777781" /></flowRegion><flowPara
         style="font-size:51.20000076px;line-height:1.25;text-align:center;text-anchor:middle;stroke-width:1.06666672"
         id="flowPara91">...men det er ærgerligt,</flowPara><flowPara
         style="font-size:51.20000076px;line-height:1.25;text-align:center;text-anchor:middle;stroke-width:1.06666672"
         id="flowPara99">vi ikke kunne forhindre</flowPara><flowPara
         style="font-size:51.20000076px;line-height:1.25;text-align:center;text-anchor:middle;stroke-width:1.06666672"
         id="flowPara107">eliksirens bivirkninger  </flowPara><flowPara
         style="font-size:51.20000076px;line-height:1.25;text-align:center;text-anchor:middle;stroke-width:1.06666672"
         id="flowPara95" /></flowRoot>    <flowRoot
       xml:space="preserve"
       id="flowRoot2987-4-9-3-2"
       style="font-style:normal;font-variant:normal;font-weight:normal;font-stretch:normal;font-size:12.80000019px;line-height:0.01%;font-family:Lavi;-inkscape-font-specification:Lavi;text-align:center;letter-spacing:0px;word-spacing:0px;text-anchor:middle;fill:#000000;fill-opacity:1;stroke:none;stroke-width:1.06666672"><flowRegion
         id="flowRegion2989-5-4-5-6"
         style="stroke-width:1.06666672"><rect
           id="rect2991-7-9-6-2"
           width="629.49518"
           height="280.52258"
           x="1331.353"
           y="2250.926"
           style="font-style:normal;font-variant:normal;font-weight:normal;font-stretch:normal;font-family:Lavi;-inkscape-font-specification:Lavi;text-align:center;text-anchor:middle;stroke-width:1.13777781" /></flowRegion><flowPara
         style="font-size:51.20000076px;line-height:1.25;text-align:center;text-anchor:middle;stroke-width:1.06666672"
         id="flowPara4200">Ingen panik. Pels- og fjertabet er kun midlertidigt. Det vokser hurtigt ud igen.</flowPara></flowRoot>    <flowRoot
       transform="matrix(1.1743557,0,-0.28611891,2.1027743,785.01603,2949.1771)"
       style="font-style:normal;font-variant:normal;font-weight:normal;font-stretch:normal;line-height:0.01%;font-family:Lavi;-inkscape-font-specification:Lavi;text-align:center;letter-spacing:0px;word-spacing:0px;text-anchor:middle;fill:#000000;fill-opacity:1;stroke:#000000;stroke-width:4.69999981;stroke-miterlimit:4;stroke-dasharray:none;stroke-opacity:1"
       id="flowRoot4212-3-7-8-6"
       xml:space="preserve"><flowRegion
         id="flowRegion4214-6-7-8-3"><rect
           style="font-style:normal;font-variant:normal;font-weight:normal;font-stretch:normal;font-family:Lavi;-inkscape-font-specification:Lavi;text-align:center;text-anchor:middle;stroke:#000000;stroke-width:4.69999981;stroke-miterlimit:4;stroke-dasharray:none;stroke-opacity:1"
           y="265.53046"
           x="120.55251"
           height="355.03918"
           width="798.1947"
           id="rect4216-4-0-26-5" /></flowRegion><flowPara
         style="font-size:48px;line-height:1.25;text-align:center;letter-spacing:5.20896292px;text-anchor:middle;stroke:#000000;stroke-width:4.69999981;stroke-miterlimit:4;stroke-dasharray:none;stroke-opacity:1"
         id="flowPara4358-7-1">- Slut -</flowPara></flowRoot>    <flowRoot
       xml:space="preserve"
       id="flowRoot2987-4-9-3-6-3-8-7-2-7-2"
       style="font-style:normal;font-variant:normal;font-weight:normal;font-stretch:normal;font-size:12.80000019px;line-height:0.01%;font-family:Lavi;-inkscape-font-specification:Lavi;text-align:center;letter-spacing:0px;word-spacing:0px;text-anchor:middle;opacity:0.40200004;fill:#000000;fill-opacity:1;stroke:none;stroke-width:1.06666672"
       transform="matrix(1.2186602,0,0,1.2186602,-304.73635,-791.0968)"><flowRegion
         id="flowRegion2989-5-4-5-5-3-0-6-76-8-1"
         style="stroke-width:1.06666672"><rect
           id="rect2991-7-9-6-21-9-8-0-3-1-7"
           width="1660.8263"
           height="51.12011"
           x="492.63123"
           y="3641.2861"
           style="font-style:normal;font-variant:normal;font-weight:normal;font-stretch:normal;font-family:Lavi;-inkscape-font-specification:Lavi;text-align:center;text-anchor:middle;stroke-width:1.13777781" /></flowRegion><flowPara
         style="font-size:39.38751602px;line-height:1.25;text-align:center;text-anchor:middle;fill:#000000;fill-opacity:1;stroke-width:1.06666672"
         id="flowPara3272-6-3-1"><flowSpan
   style="font-size:35.01112747px"
   id="flowSpan109">Juli 2015 - Tegning og manuskript: David Revoy - Oversættelse: Emmiline og </flowSpan>Alexandre Alapetite </flowPara></flowRoot>    <flowRoot
       xml:space="preserve"
       id="flowRoot2987-4-9-3-9"
       style="font-style:normal;font-variant:normal;font-weight:normal;font-stretch:normal;font-size:14.63759518px;line-height:0.01%;font-family:Lavi;-inkscape-font-specification:Lavi;text-align:center;letter-spacing:0px;word-spacing:0px;text-anchor:middle;fill:#000000;fill-opacity:1;stroke:none;stroke-width:1.21979952"><flowRegion
         id="flowRegion2989-5-4-5-8"
         style="stroke-width:1.21979952"><rect
           id="rect2991-7-9-6-21"
           width="499.99792"
           height="177.7735"
           x="892.70178"
           y="173.48842"
           style="font-style:normal;font-variant:normal;font-weight:normal;font-stretch:normal;font-family:Lavi;-inkscape-font-specification:Lavi;text-align:center;text-anchor:middle;stroke-width:1.48791099" /></flowRegion><flowPara
         style="font-size:58.55038071px;line-height:1.25;text-align:center;text-anchor:middle;stroke-width:1.21979952"
         id="flowPara3030-8-7">Super!</flowPara></flowRoot>    <flowRoot
       xml:space="preserve"
       id="flowRoot2987-4-9-3-9-2"
       style="font-style:normal;font-variant:normal;font-weight:normal;font-stretch:normal;font-size:12.80000019px;line-height:0.01%;font-family:Lavi;-inkscape-font-specification:Lavi;text-align:center;letter-spacing:0px;word-spacing:0px;text-anchor:middle;fill:#000000;fill-opacity:1;stroke:none;stroke-width:1.06666672"><flowRegion
         id="flowRegion2989-5-4-5-8-2"
         style="stroke-width:1.06666672"><rect
           id="rect2991-7-9-6-21-2"
           width="437.22849"
           height="155.45592"
           x="1429.5408"
           y="188.09256"
           style="font-style:normal;font-variant:normal;font-weight:normal;font-stretch:normal;font-family:Lavi;-inkscape-font-specification:Lavi;text-align:center;text-anchor:middle;stroke-width:1.13777781" /></flowRegion><flowPara
         style="font-size:51.20000076px;line-height:1.25;text-align:center;text-anchor:middle;stroke-width:1.06666672"
         id="flowPara3030-8-7-7">Juhuu!</flowPara></flowRoot>    <flowRoot
       xml:space="preserve"
       id="flowRoot2987-4-9-3-9-2-2"
       style="font-style:normal;font-variant:normal;font-weight:normal;font-stretch:normal;font-size:12.80000019px;line-height:0.01%;font-family:Lavi;-inkscape-font-specification:Lavi;text-align:center;letter-spacing:0px;word-spacing:0px;text-anchor:middle;fill:#000000;fill-opacity:1;stroke:none;stroke-width:1.06666672"><flowRegion
         id="flowRegion2989-5-4-5-8-2-2"
         style="stroke-width:1.06666672"><rect
           id="rect2991-7-9-6-21-2-5"
           width="466.56183"
           height="158.12259"
           x="978.85602"
           y="284.70972"
           style="font-style:normal;font-variant:normal;font-weight:normal;font-stretch:normal;font-family:Lavi;-inkscape-font-specification:Lavi;text-align:center;text-anchor:middle;stroke-width:1.13777781" /></flowRegion><flowPara
         style="font-size:51.20000076px;line-height:1.25;text-align:center;text-anchor:middle;stroke-width:1.06666672"
         id="flowPara3030-8-7-7-1">Vi er de </flowPara><flowPara
         style="font-size:51.20000076px;line-height:1.25;text-align:center;text-anchor:middle;stroke-width:1.06666672"
         id="flowPara63">bedste!</flowPara></flowRoot>    <flowRoot
       xml:space="preserve"
       id="flowRoot2987-4-9-3-9-2-2-9"
       style="font-style:normal;font-variant:normal;font-weight:normal;font-stretch:normal;font-size:12.80000019px;line-height:0.01%;font-family:Lavi;-inkscape-font-specification:Lavi;text-align:center;letter-spacing:0px;word-spacing:0px;text-anchor:middle;fill:#000000;fill-opacity:1;stroke:none;stroke-width:1.06666672"><flowRegion
         id="flowRegion2989-5-4-5-8-2-2-8"
         style="stroke-width:1.06666672"><rect
           id="rect2991-7-9-6-21-2-5-3"
           width="301.22849"
           height="142.12259"
           x="1340.6268"
           y="295.3139"
           style="font-style:normal;font-variant:normal;font-weight:normal;font-stretch:normal;font-family:Lavi;-inkscape-font-specification:Lavi;text-align:center;text-anchor:middle;stroke-width:1.13777781" /></flowRegion><flowPara
         style="font-size:51.20000076px;line-height:1.25;text-align:center;text-anchor:middle;stroke-width:1.06666672"
         id="flowPara4258">De er</flowPara><flowPara
         style="font-size:51.20000076px;line-height:1.25;text-align:center;text-anchor:middle;stroke-width:1.06666672"
         id="flowPara69">raske!</flowPara></flowRoot>    <g
       id="layer1-5"
       transform="matrix(0.09993595,-0.03471419,0.02199218,0.07732029,1733.8265,426.688)">
      <path
         inkscape:connector-curvature="0"
         id="path5065"
         sodipodi:nodetypes="ccsscccssccccccc"
         style="fill:#000000;stroke-width:1.06666672"
         d="m 399.40267,250.82667 c -29.87734,130.57066 -63.776,345.088 -101.792,449.92 C 185.984,623.456 116.18133,656.08533 127.43467,744.544 c 7.22208,56.76587 115.11466,102.27093 185.28,-9.2432 42.49706,-67.53707 56.38506,-204.07467 80.46613,-315.82933 66.624,39.9936 130.464,107.872 216.384,119.02933 -17.96053,80.95787 -50.2208,206.944 -69.55733,291.008 -111.62667,-77.29067 -205.74934,-44.78507 -194.496,43.67467 7.22208,56.76586 188.928,96.91626 219.25333,-25.09974 L 674.83413,405.0864 c -69.504,37.76 -201.55733,-106.70933 -275.43466,-154.26133 z m 11.5776,79.88906 c 69.59786,40.336 139.73333,126.816 220.23466,130.90134 -2.6785,11.87093 -2.23402,27.86666 -4.86304,39.6256 -83.10933,-11.3984 -153.824,-85.88694 -225.12,-124.928 2.27446,-10.78934 7.82635,-36.21227 9.74347,-45.58934 z" />
    </g>
    <path
       inkscape:connector-curvature="0"
       id="path5065-6"
       sodipodi:nodetypes="ccssscccsscc"
       style="fill:#000000;stroke-width:1.06666672"
       d="m 1769.2591,492.9753 c -1.9478,7.82876 -3.4373,18.02258 -6.0559,25.21181 -9.2499,-4.3878 -15.4425,-1.48468 -12.1459,2.95582 1.7565,2.36608 8.1656,5.69413 13.7105,0.29313 0.4607,-0.44872 1.2001,-1.85876 1.4139,-2.65223 1.8977,-7.04312 2.8329,-17.58336 4.1863,-23.47517 5.0547,3.12415 11.8294,8.53487 18.7787,9.03072 -1.1583,4.86261 -5.2765,17.81185 -6.5346,22.86253 -9.2499,-4.38781 -16.8692,-2.35206 -14.4935,2.55388 1.6311,3.36859 14.4651,3.90711 15.9896,-1.30432 l 7.847,-26.82255 c -5.4563,2.38823 -16.5869,-5.96449 -22.6954,-8.65387 z" />
    <path
       inkscape:connector-curvature="0"
       id="path5065-6-4"
       sodipodi:nodetypes="ccsssccccc"
       style="fill:#000000;stroke-width:1.06666672"
       d="m 1734.2877,411.69287 c 2.9405,11.23124 8.2745,25.29606 9.7809,36.05436 -16.5208,-0.75773 -23.2968,6.33598 -15.2995,10.35047 4.2614,2.13887 15.9195,3.03831 19.9323,-6.95983 0.3335,-0.83067 0.3626,-3.06165 0.089,-4.20879 -2.4364,-10.18225 -9.1726,-25.65381 -11.5473,-34.04626 3.7177,3.00876 6.1476,6.09287 7.4764,5.8976 -0.021,-1.21749 0.4563,-2.40156 0.4979,-3.33557 -4.2171,-2.14354 -3.1597,-0.82662 -8.2991,-4.92448 -0.715,-0.57011 -0.2985,0.88246 -2.6304,1.17296 z" />
    <g
       id="layer1-5-7"
       transform="matrix(0.06843295,-0.08960639,0.06473847,0.05970609,916.27558,436.78741)">
      <path
         inkscape:connector-curvature="0"
         id="path5065-3"
         sodipodi:nodetypes="ccsscccssccccccc"
         style="fill:#000000;stroke-width:1.06666672"
         d="m 399.40267,250.82667 c -29.87734,130.57066 -63.776,345.088 -101.792,449.92 C 185.984,623.456 116.18133,656.08533 127.43467,744.544 c 7.22208,56.76587 115.11466,102.27093 185.28,-9.2432 42.49706,-67.53707 56.38506,-204.07467 80.46613,-315.82933 66.624,39.9936 130.464,107.872 216.384,119.02933 -17.96053,80.95787 -50.2208,206.944 -69.55733,291.008 -111.62667,-77.29067 -205.74934,-44.78507 -194.496,43.67467 7.22208,56.76586 188.928,96.91626 219.25333,-25.09974 L 674.83413,405.0864 c -69.504,37.76 -201.55733,-106.70933 -275.43466,-154.26133 z m 11.5776,79.88906 c 69.59786,40.336 139.73333,126.816 220.23466,130.90134 -2.6785,11.87093 -2.23402,27.86666 -4.86304,39.6256 -83.10933,-11.3984 -153.824,-85.88694 -225.12,-124.928 2.27446,-10.78934 7.82635,-36.21227 9.74347,-45.58934 z" />
    </g>
    <path
       inkscape:connector-curvature="0"
       id="path5065-6-4-1"
       sodipodi:nodetypes="ccsssccccc"
       style="fill:#000000;stroke-width:1.06666672"
       d="m 1029.4948,454.66925 c 1.8237,12.68305 5.8384,28.75836 6.2122,40.75472 -17.2275,-2.75697 -25.1224,4.24809 -17.1916,9.59062 4.2261,2.84651 16.342,5.19276 21.6667,-5.32547 0.4425,-0.87387 0.7228,-3.3218 0.5639,-4.6142 -1.4129,-11.47172 -6.7393,-29.25603 -8.2881,-38.75402 3.559,3.73899 5.76,7.41076 7.1743,7.35098 0.1141,-1.3402 0.7471,-2.5856 0.8953,-3.60702 -4.1792,-2.84647 -3.2186,-1.27632 -8.1453,-6.37755 -0.6855,-0.70972 -0.4116,0.93484 -2.8878,0.9824 z" />
    <path
       inkscape:connector-curvature="0"
       id="path5065-6-41"
       sodipodi:nodetypes="ccssscccsscc"
       style="fill:#000000;stroke-width:1.06666672"
       d="m 923.87469,438.99874 c -0.67463,8.87111 -0.46422,20.25005 -1.9468,28.53289 -10.37858,-3.27195 -16.31857,0.91697 -12.12319,5.22514 2.2354,2.29556 9.47638,4.87697 14.31149,-1.93375 0.4017,-0.56584 0.92737,-2.22749 1.01278,-3.1293 0.75803,-8.00473 -0.0888,-19.67091 0.30188,-26.32867 5.79694,2.58136 13.77758,7.37745 21.09133,6.77665 -0.36534,5.50152 -2.41348,20.32219 -2.85014,26.04554 -10.37859,-3.27192 -17.95235,0.20416 -14.63434,5.17207 2.27799,3.41116 15.72007,1.88956 16.40615,-4.05319 l 3.53173,-30.5866 c -5.26309,3.50549 -18.28224,-3.78791 -25.1002,-5.72115 z" />
    <text
       xml:space="preserve"
       style="font-style:normal;font-weight:normal;font-size:40px;line-height:1.25;font-family:sans-serif;letter-spacing:0px;word-spacing:0px;fill:#000000;fill-opacity:1;stroke:none"
       x="3094.6499"
       y="119.49598"
       id="text67"><tspan
         sodipodi:role="line"
         id="tspan65"
         x="3094.6499"
         y="154.8866" /></text>
  </g>
</svg>
