<?xml version="1.0" encoding="UTF-8" standalone="no"?>
<!-- Created with Inkscape (http://www.inkscape.org/) -->

<svg
   xmlns:dc="http://purl.org/dc/elements/1.1/"
   xmlns:cc="http://creativecommons.org/ns#"
   xmlns:rdf="http://www.w3.org/1999/02/22-rdf-syntax-ns#"
   xmlns:svg="http://www.w3.org/2000/svg"
   xmlns="http://www.w3.org/2000/svg"
   xmlns:xlink="http://www.w3.org/1999/xlink"
   xmlns:sodipodi="http://sodipodi.sourceforge.net/DTD/sodipodi-0.dtd"
   xmlns:inkscape="http://www.inkscape.org/namespaces/inkscape"
   id="svg2"
   version="1.1"
   inkscape:version="0.92.1 r15371"
   width="2646.3999"
   height="3736.5334"
   sodipodi:docname="Pepper-and-Carrot_by-David-Revoy_E09P03.svg">
  <metadata
     id="metadata8">
    <rdf:RDF>
      <cc:Work
         rdf:about="">
        <dc:format>image/svg+xml</dc:format>
        <dc:type
           rdf:resource="http://purl.org/dc/dcmitype/StillImage" />
        <dc:title />
      </cc:Work>
    </rdf:RDF>
  </metadata>
  <defs
     id="defs6" />
  <sodipodi:namedview
     pagecolor="#ffffff"
     bordercolor="#666666"
     borderopacity="1"
     objecttolerance="10"
     gridtolerance="10"
     guidetolerance="10"
     inkscape:pageopacity="0"
     inkscape:pageshadow="2"
     inkscape:window-width="1305"
     inkscape:window-height="744"
     id="namedview4"
     showgrid="false"
     inkscape:zoom="0.28284272"
     inkscape:cx="1043.6759"
     inkscape:cy="1980.4835"
     inkscape:window-x="61"
     inkscape:window-y="24"
     inkscape:window-maximized="1"
     inkscape:current-layer="layer1" />
  <g
     inkscape:groupmode="layer"
     id="layer2"
     inkscape:label="artwork"
     sodipodi:insensitive="true">
    <image
       sodipodi:absref="/home/emmiline/Documents/git/peppercarrot/peppercarrot_ep09_translation/da/../gfx_Pepper-and-Carrot_by-David-Revoy_E09P03.png"
       xlink:href="../gfx_Pepper-and-Carrot_by-David-Revoy_E09P03.png"
       width="2646.3999"
       height="3736.5334"
       id="image10"
       x="0"
       y="0" />
  </g>
  <g
     inkscape:groupmode="layer"
     id="layer3"
     inkscape:label="speechbubbles" />
  <g
     inkscape:groupmode="layer"
     id="layer1"
     inkscape:label="txt">
    <path
       style="fill:#ffffff;fill-rule:evenodd;stroke:none;stroke-width:1.06666672px;stroke-linecap:butt;stroke-linejoin:miter;stroke-opacity:1"
       d="m 1096.9014,2824.9397 c 0,0 4.9893,-21.3169 28.6884,-26.054 23.6993,-4.737 47.3983,13.027 47.3983,13.027 0,0 7.4838,-22.5012 28.6883,-23.6854 21.2045,-1.1845 43.6563,16.5797 43.6563,16.5797 0,0 4.9893,-15.3955 18.7099,-15.3955 13.7204,0 28.6883,13.0271 28.6883,13.0271 0,0 19.9571,-11.843 36.1722,-11.843 16.2153,0 43.6563,11.843 43.6563,11.843 0,0 11.2259,-8.2899 23.6992,-8.2899 12.4731,0 31.183,14.2113 31.183,14.2113 0,0 14.9678,-20.1327 31.183,-18.9485 16.2152,1.1841 37.4196,16.5798 37.4196,16.5798 0,0 19.9571,-11.8426 31.1831,-9.4742 11.2258,2.3686 33.6777,20.1328 33.6777,20.1328 0,0 1.2471,-5.9215 13.7205,-2.3686 12.4732,3.5528 21.2044,13.0271 21.2044,13.0271 0,0 22.4518,-5.9214 39.9142,11.8427 17.4625,17.7643 14.968,39.0813 14.968,39.0813 0,0 8.7312,15.3955 8.7312,27.2382 0,11.843 -12.4733,22.5015 -12.4733,22.5015 0,0 18.7099,26.054 8.7313,48.5554 -9.9785,22.5012 -24.9464,21.317 -24.9464,21.317 0,0 2.4946,11.8428 -2.4946,15.3956 -4.9893,3.5529 -21.2045,4.7372 -21.2045,4.7372 0,0 3.742,13.027 -18.7099,29.6068 -22.4516,16.5801 -73.5919,20.1328 -73.5919,20.1328 0,0 -16.2151,18.9484 -37.4197,26.0541 -21.2044,7.1057 -51.14,1.1844 -51.14,1.1844 0,0 -7.4841,20.1326 -32.4304,22.5012 -24.9464,2.3686 -64.8608,-13.0271 -64.8608,-13.0271 0,0 -28.6884,24.8699 -54.8821,18.9485 -26.1937,-5.9214 -36.1723,-18.9485 -36.1723,-18.9485 0,0 -22.4517,7.1058 -46.1508,-2.3684 -23.6992,-9.4743 -31.1831,-23.6856 -31.1831,-23.6856 0,0 -28.6885,4.737 -48.6455,0 -19.9572,-4.7371 -38.667,-28.4228 -38.667,-28.4228 0,0 -31.1831,-3.5527 -49.8929,-23.6855 -18.7097,-20.1329 -14.9678,-46.1869 -14.9678,-46.1869 0,0 -23.69911,-22.5013 -21.20447,-37.8969 2.49464,-15.3956 21.20447,-34.344 21.20447,-34.344 0,0 -11.2259,-14.2115 -7.4839,-23.6857 3.742,-9.4741 18.7098,-14.2113 18.7098,-14.2113 0,0 -18.7098,-28.4227 14.9678,-46.1869 33.6777,-17.7642 62.3661,1.1842 62.3661,1.1842 z"
       id="path4136"
       inkscape:connector-curvature="0" />
    <path
       style="fill:#ffffff;fill-rule:evenodd;stroke:none;stroke-width:1.06666672px;stroke-linecap:butt;stroke-linejoin:miter;stroke-opacity:1"
       d="m 1528.7422,3111.7845 c 0,0 7.3557,-21.5894 30.2403,-10.7947 22.8847,10.7947 14.7116,24.9108 14.7116,24.9108 0,0 25.3366,11.6251 7.3557,24.9108 -17.9808,13.2859 -37.5961,4.9822 -37.5961,4.9822 0,0 -42.5001,9.9644 -51.4905,-18.2679 -8.9904,-28.2323 36.779,-25.7412 36.779,-25.7412 z"
       id="path4138"
       inkscape:connector-curvature="0" />
    <path
       style="fill:#ffffff;fill-rule:evenodd;stroke:none;stroke-width:1.06666672px;stroke-linecap:butt;stroke-linejoin:miter;stroke-opacity:1"
       d="m 1622.3066,3177.2519 c 0,0 7.3452,-7.3858 16.8943,0.6154 9.5489,8.0014 3.6725,14.1562 3.6725,14.1562 0,0 6.6109,11.6942 -6.6108,15.3871 -13.2216,3.6929 -22.7705,-6.1548 -22.7705,-6.1548 0,0 -25.7087,1.8464 -23.5051,-16.0027 2.2036,-17.8489 21.3014,-18.4644 32.3196,-8.0012 z"
       id="path4140"
       inkscape:connector-curvature="0" />
    <flowRoot
       xml:space="preserve"
       id="flowRoot2987-4-9-3"
       style="font-style:normal;font-variant:normal;font-weight:normal;font-stretch:normal;font-size:12.80000019px;line-height:0.01%;font-family:Lavi;-inkscape-font-specification:Lavi;text-align:center;letter-spacing:0px;word-spacing:0px;text-anchor:middle;fill:#000000;fill-opacity:1;stroke:none;stroke-width:1.06666672"
       transform="translate(0,10)"><flowRegion
         id="flowRegion2989-5-4-5"
         style="stroke-width:1.06666672"><rect
           id="rect2991-7-9-6"
           width="642.56183"
           height="331.45596"
           x="1006.3621"
           y="2830.425"
           style="font-style:normal;font-variant:normal;font-weight:normal;font-stretch:normal;font-family:Lavi;-inkscape-font-specification:Lavi;text-align:center;text-anchor:middle;stroke-width:1.13777781" /></flowRegion><flowPara
         style="font-size:51.20000076px;line-height:1.25;text-align:center;text-anchor:middle;stroke-width:1.06666672"
         id="flowPara3030-8">Dumme Pepper!</flowPara><flowPara
         style="font-size:51.20000076px;line-height:1.25;text-align:center;text-anchor:middle;stroke-width:1.06666672"
         id="flowPara4158">Nu er det for sent,</flowPara><flowPara
         style="font-size:51.20000076px;line-height:1.25;text-align:center;text-anchor:middle;stroke-width:1.06666672"
         id="flowPara24">de hader mig nok...</flowPara></flowRoot>  </g>
</svg>
