<?xml version="1.0" encoding="UTF-8" standalone="no"?>
<!-- Created with Inkscape (http://www.inkscape.org/) -->

<svg
   xmlns:dc="http://purl.org/dc/elements/1.1/"
   xmlns:cc="http://creativecommons.org/ns#"
   xmlns:rdf="http://www.w3.org/1999/02/22-rdf-syntax-ns#"
   xmlns:svg="http://www.w3.org/2000/svg"
   xmlns="http://www.w3.org/2000/svg"
   xmlns:xlink="http://www.w3.org/1999/xlink"
   xmlns:sodipodi="http://sodipodi.sourceforge.net/DTD/sodipodi-0.dtd"
   xmlns:inkscape="http://www.inkscape.org/namespaces/inkscape"
   id="svg2"
   version="1.1"
   inkscape:version="0.91 r13725"
   width="2481"
   height="3503"
   sodipodi:docname="Pepper-and-Carrot_by-David-Revoy_E09P07.svg">
  <metadata
     id="metadata8">
    <rdf:RDF>
      <cc:Work
         rdf:about="">
        <dc:format>image/svg+xml</dc:format>
        <dc:type
           rdf:resource="http://purl.org/dc/dcmitype/StillImage" />
        <dc:title />
      </cc:Work>
    </rdf:RDF>
  </metadata>
  <defs
     id="defs6" />
  <sodipodi:namedview
     pagecolor="#ffffff"
     bordercolor="#666666"
     borderopacity="1"
     objecttolerance="10"
     gridtolerance="10"
     guidetolerance="10"
     inkscape:pageopacity="0"
     inkscape:pageshadow="2"
     inkscape:window-width="1280"
     inkscape:window-height="966"
     id="namedview4"
     showgrid="false"
     inkscape:zoom="0.30245747"
     inkscape:cx="1277.1842"
     inkscape:cy="2474.7872"
     inkscape:window-x="-2"
     inkscape:window-y="31"
     inkscape:window-maximized="1"
     inkscape:current-layer="layer1" />
  <g
     inkscape:groupmode="layer"
     id="layer2"
     inkscape:label="artwork"
     sodipodi:insensitive="true">
    <image
       sodipodi:absref="/home/rjq/Arts and Craft/2015/Translation P&amp;C/GIT/peppercarrot_ep09_translation/mx/../gfx_Pepper-and-Carrot_by-David-Revoy_E09P07.png"
       xlink:href="../gfx_Pepper-and-Carrot_by-David-Revoy_E09P07.png"
       width="2481"
       height="3503"
       id="image10"
       x="0"
       y="0" />
  </g>
  <g
     inkscape:groupmode="layer"
     id="layer3"
     inkscape:label="speechbubbles" />
  <g
     inkscape:groupmode="layer"
     id="layer1"
     inkscape:label="txt">
    <path
       style="color:#000000;display:inline;overflow:visible;visibility:visible;fill:#ffffff;fill-opacity:1;fill-rule:nonzero;stroke:none;stroke-width:1px;marker:none;enable-background:accumulate"
       d="m 955.16048,127.19889 c -7.05978,15.19789 -46.87765,16.47229 -61.53573,13.38306 29.54727,17.00163 28.51718,27.56501 -11.5997,29.20518 67.27668,30.64139 12.29909,26.00463 1.45512,33.77441 52.82466,10.55969 29.19038,23.70151 19.78576,36.78394 41.21198,-8.28792 55.26339,1.21511 40.8619,17.91694 22.95587,-10.56764 41.4732,-4.39326 33.61623,15.07424 40.16054,-25.34591 88.53284,-41.71812 92.37384,2.63734 16.1815,-22.31401 32.3143,-31.74482 31.0721,-5.13073 40.0924,-34.61498 76.1209,-22.15522 112.363,-12.37172 9.519,-10.44762 1.2996,-27.59035 41.4233,-22.73682 -18.7342,-11.99371 6.08,-17.47378 29.5619,-21.70094 -31.2036,-6.25544 -36.9544,-12.70777 20.9838,-19.65149 -44.0875,-0.67165 -85.1994,-2.04772 -33.4752,-25.72782 -16.2273,-0.57299 -54.7284,19.18633 -36.7777,-38.63975 -27.9038,18.51215 -57.6746,28.72954 -95.01,-10.04868 -17.6689,19.37283 -48.3152,28.95929 -61.6481,4.76107 -4.7921,10.31613 -24.6623,14.19585 -41.5309,14.66635 -6.5228,-4.09777 -13.2507,-9.66356 -20.2715,-16.95565 -11.4749,15.31146 -28.64002,25.65215 -61.64812,4.76107 z"
       id="path3549-3-7"
       inkscape:connector-curvature="0"
       sodipodi:nodetypes="cccccccccccccccccccc" />
    <path
       style="color:#000000;display:inline;overflow:visible;visibility:visible;fill:#ffffff;fill-opacity:1;fill-rule:nonzero;stroke:none;stroke-width:1px;marker:none;enable-background:accumulate"
       d="m 1546.5959,307.27588 c 10.0441,-35.76408 25.8672,-34.65587 38.8655,-22.77693 9.7478,-38.61314 35.4641,-25.81184 74.1885,-27.31785 -0.6554,-14.74979 -13.0451,-32.83012 16.074,-39.12923 -12.2566,-9.95432 -9.4207,-21.32088 6.8818,-33.94792 -31.5377,3.68718 -41.7363,-1.48532 1.3873,-28.79657 -37.7676,14.21516 -73.6364,26.64994 -49.6763,-17.00889 -14.1722,4.87293 -47.5196,29.44324 -63.1735,-30.13185 -16.0977,38.75747 -31.3172,50.30525 -88.5366,21.14382 3.0496,20.77675 -2.8269,37.99536 -48.0597,26.15585 6.6814,19.15373 -25.8885,34.05214 -40.8288,35.6181 39.0771,8.72457 47.0036,20.71442 14.5099,36.13191 82.2639,10.96637 32.0218,24.52242 29.3317,36.76881 53.3651,-6.27539 44.3321,16.21402 47.2752,33.83055 51.6174,-20.10142 50.4098,-13.72805 61.761,9.4602 z"
       id="path3549-3"
       inkscape:connector-curvature="0"
       sodipodi:nodetypes="ccccccccccccccc" />
    <path
       style="fill:#ffffff;fill-rule:evenodd;stroke:none;stroke-width:1px;stroke-linecap:butt;stroke-linejoin:miter;stroke-opacity:1"
       d="m 1477.9067,463.11034 c 0,0 -54.6895,-26.58924 -42.2601,-70.59904 12.4294,-44.00979 9.9436,27.50613 42.2601,70.59904 z"
       id="path4323-7"
       inkscape:connector-curvature="0" />
    <path
       style="fill:#ffffff;fill-rule:evenodd;stroke:none;stroke-width:1px;stroke-linecap:butt;stroke-linejoin:miter;stroke-opacity:1"
       d="m 1356.5378,491.51299 c 0,0 52.4841,-55.94607 36.6214,-99.3802 -15.8626,-43.43413 24.72,8.47189 24.72,8.47189 0,0 14.669,43.08756 -61.3414,90.90831 z"
       id="path4319-8"
       inkscape:connector-curvature="0" />
    <path
       style="fill:#ffffff;fill-rule:evenodd;stroke:none;stroke-width:1px;stroke-linecap:butt;stroke-linejoin:miter;stroke-opacity:1"
       d="m 1108.7041,498.80966 c 0,0 34.8023,-68.3618 7.4576,-105.65006 -27.3447,-37.28825 26.1018,1.24294 26.1018,1.24294 0,0 26.1018,37.28826 -33.5594,104.40712 z"
       id="path4319"
       inkscape:connector-curvature="0" />
    <path
       style="fill:#ffffff;fill-rule:evenodd;stroke:none;stroke-width:1px;stroke-linecap:butt;stroke-linejoin:miter;stroke-opacity:1"
       d="m 1226.7836,471.46494 c 0,0 -54.6895,-36.04531 -42.2601,-95.70652 12.4294,-59.6612 9.9436,37.28826 42.2601,95.70652 z"
       id="path4323"
       inkscape:connector-curvature="0" />
    <path
       style="fill:#ffffff;stroke:none"
       d="m 1237.7453,341.6637 c -0.9076,-26.5738 28.0113,-91.5768 153.9245,-91.6338 127.8324,-0.0579 164.2831,38.72881 167.0246,85.99487 4.3371,74.77359 -62.1602,92.89133 -157.1832,95.80246 -97.9586,3.00113 -158.4086,-22.94979 -163.7659,-90.16353 z"
       id="path3280-4"
       inkscape:connector-curvature="0"
       sodipodi:nodetypes="csssc" />
    <path
       style="fill:#ffffff;stroke:none"
       d="m 975.6039,325.1971 c -0.901,-26.32275 28.1767,-99.14667 152.8043,-90.7681 124.6277,8.37856 163.0874,38.36292 165.809,85.18244 4.3055,74.06717 -61.7078,92.01375 -156.0393,94.89737 -97.2456,2.97278 -157.2557,-22.73298 -162.574,-89.31171 z"
       id="path3280"
       inkscape:connector-curvature="0"
       sodipodi:nodetypes="csssc" />
    <path
       style="fill:#ffffff;fill-rule:evenodd;stroke:none;stroke-width:1px;stroke-linecap:butt;stroke-linejoin:miter;stroke-opacity:1"
       d="m 2143.5029,1943.0428 c 0,0 -95.3399,295.8089 -414.2353,263.1064 -318.8953,-32.7025 286.0196,215.5391 414.2353,-263.1064 z"
       id="path4196"
       inkscape:connector-curvature="0" />
    <path
       style="color:#000000;display:inline;overflow:visible;visibility:visible;fill:#ffffff;fill-opacity:1;fill-rule:nonzero;stroke:none;stroke-width:1px;marker:none;enable-background:accumulate"
       d="m 1210.8918,2163.1144 c 54.944,-93.0402 171.225,-100.1336 265.3427,-107.1335 109.9685,-3.2605 225.0547,-1.4894 328.0641,42.317 78.8685,44.2441 106.9732,172.8604 32.289,234.684 -73.9819,61.6261 -175.847,61.4843 -266.065,62.8362 -97.184,-3.8914 -195.676,-12.9387 -289.3722,-40.6401 -69.7939,-29.4907 -112.5044,-121.6483 -70.2586,-192.0636 z"
       id="path3533"
       inkscape:connector-curvature="0" />
    <path
       style="fill:#ffffff;fill-rule:evenodd;stroke:none;stroke-width:1px;stroke-linecap:butt;stroke-linejoin:miter;stroke-opacity:1"
       d="m 1560.9274,1811.2228 c 0,0 -126.2755,-97.0217 -187.8463,-99.3499 -61.5707,-2.3281 -29.5112,-37.7601 -29.5112,-37.7601 0,0 88.6993,-5.9935 217.3575,137.11 z"
       id="path4188"
       inkscape:connector-curvature="0" />
    <path
       style="color:#000000;display:inline;overflow:visible;visibility:visible;fill:#ffffff;fill-opacity:1;fill-rule:nonzero;stroke:none;stroke-width:1px;marker:none;enable-background:accumulate"
       d="m 686.51113,1668.1851 c 10.80835,-100.9368 119.85572,-173.5041 399.21827,-150.9511 149.6416,12.0802 319.6591,20.9138 305.564,168.8014 -14.0949,147.8871 -258.583,140.985 -309.1417,143.8072 -50.5589,2.8226 -313.20515,-16.0303 -358.17261,-66.9666 -28.1486,-31.8846 -38.92571,-63.4064 -37.46796,-94.6909 z"
       id="path4546"
       inkscape:connector-curvature="0"
       sodipodi:nodetypes="cssssc" />
    <flowRoot
       xml:space="preserve"
       id="flowRoot2987-4-9-3"
       style="font-style:normal;font-variant:normal;font-weight:normal;font-stretch:normal;font-size:12px;line-height:125%;font-family:Lavi;-inkscape-font-specification:Lavi;text-align:center;letter-spacing:0px;word-spacing:0px;text-anchor:middle;fill:#000000;fill-opacity:1;stroke:none"
       transform="translate(558.49997,1283.8263)"><flowRegion
         id="flowRegion2989-5-4-5"><rect
           id="rect2991-7-9-6"
           width="697.96423"
           height="372.67117"
           x="120.55251"
           y="265.53046"
           style="font-style:normal;font-variant:normal;font-weight:normal;font-stretch:normal;font-family:Lavi;-inkscape-font-specification:Lavi;text-align:center;text-anchor:middle" /></flowRegion><flowPara
         style="font-size:50px;text-align:center;text-anchor:middle"
         id="flowPara4190">... Pero es una pena que</flowPara><flowPara
         style="font-size:50px;text-align:center;text-anchor:middle"
         id="flowPara3395">no hayamos podido prevenir</flowPara><flowPara
         style="font-size:50px;text-align:center;text-anchor:middle"
         id="flowPara3397">los efectos secundarios</flowPara><flowPara
         style="font-size:50px;text-align:center;text-anchor:middle"
         id="flowPara3399">de la poción ...</flowPara></flowRoot>    <flowRoot
       xml:space="preserve"
       id="flowRoot2987-4-9-3-2"
       style="font-style:normal;font-variant:normal;font-weight:normal;font-stretch:normal;font-size:12px;line-height:125%;font-family:Lavi;-inkscape-font-specification:Lavi;text-align:center;letter-spacing:0px;word-spacing:0px;text-anchor:middle;fill:#000000;fill-opacity:1;stroke:none"
       transform="translate(1127.5909,1844.7128)"><flowRegion
         id="flowRegion2989-5-4-5-6"><rect
           id="rect2991-7-9-6-2"
           width="590.15173"
           height="262.98993"
           x="120.55251"
           y="265.53046"
           style="font-style:normal;font-variant:normal;font-weight:normal;font-stretch:normal;font-family:Lavi;-inkscape-font-specification:Lavi;text-align:center;text-anchor:middle" /></flowRegion><flowPara
         style="font-size:48px;text-align:center;text-anchor:middle"
         id="flowPara4200">No te preocupes; la </flowPara><flowPara
         style="font-size:48px;text-align:center;text-anchor:middle"
         id="flowPara3409">pérdida de el pelo y plumaje son temporales, ya les saldrá nuevamente.</flowPara></flowRoot>    <flowRoot
       transform="matrix(1.1009585,0,-0.26823648,1.9713509,735.95253,2764.8535)"
       style="font-style:normal;font-variant:normal;font-weight:normal;font-stretch:normal;font-size:12px;line-height:125%;font-family:Lavi;-inkscape-font-specification:Lavi;text-align:center;letter-spacing:0px;word-spacing:0px;text-anchor:middle;fill:#000000;fill-opacity:1;stroke:#000000;stroke-width:4.69999981;stroke-miterlimit:4;stroke-dasharray:none;stroke-opacity:1"
       id="flowRoot4212-3-7-8-6"
       xml:space="preserve"><flowRegion
         id="flowRegion4214-6-7-8-3"><rect
           style="font-style:normal;font-variant:normal;font-weight:normal;font-stretch:normal;font-family:Lavi;-inkscape-font-specification:Lavi;text-align:center;text-anchor:middle;stroke:#000000;stroke-width:4.69999981;stroke-miterlimit:4;stroke-dasharray:none;stroke-opacity:1"
           y="265.53046"
           x="120.55251"
           height="355.03918"
           width="798.1947"
           id="rect4216-4-0-26-5" /></flowRegion><flowPara
         style="font-size:48px;text-align:center;letter-spacing:5.20896292px;text-anchor:middle;stroke:#000000;stroke-width:4.69999981;stroke-miterlimit:4;stroke-dasharray:none;stroke-opacity:1"
         id="flowPara4358-7-1">- FIN -</flowPara></flowRoot>    <flowRoot
       xml:space="preserve"
       id="flowRoot2987-4-9-3-6-3-8-7-2-7-2"
       style="font-style:normal;font-variant:normal;font-weight:normal;font-stretch:normal;font-size:7.94800568px;line-height:125%;font-family:Lavi;-inkscape-font-specification:Lavi;text-align:center;letter-spacing:0px;word-spacing:0px;text-anchor:middle;opacity:0.40200004;fill:#000000;fill-opacity:1;stroke:none"
       transform="translate(838.14746,3416.6537)"><flowRegion
         id="flowRegion2989-5-4-5-5-3-0-6-76-8-1"><rect
           id="rect2991-7-9-6-21-9-8-0-3-1-7"
           width="1557.0247"
           height="47.925102"
           x="-376.30569"
           y="-2.9480622"
           style="font-style:normal;font-variant:normal;font-weight:normal;font-stretch:normal;font-family:Lavi;-inkscape-font-specification:Lavi;text-align:center;text-anchor:middle" /></flowRegion><flowPara
         style="font-size:40px;text-align:center;text-anchor:middle;fill:#000000;fill-opacity:1"
         id="flowPara3272-6-3-1">Julio 2015 - Creado e ilustrado por David Revoy - <flowSpan
   style="font-size:35px"
   id="flowSpan3411">Adaptación: RJ Quiralta</flowSpan></flowPara></flowRoot>    <flowRoot
       xml:space="preserve"
       id="flowRoot2987-4-9-3-9"
       style="font-style:normal;font-variant:normal;font-weight:normal;font-stretch:normal;font-size:12px;line-height:125%;font-family:Lavi;-inkscape-font-specification:Lavi;text-align:center;letter-spacing:0px;word-spacing:0px;text-anchor:middle;fill:#000000;fill-opacity:1;stroke:none"
       transform="matrix(1.1435621,0,0,1.1435621,699.04864,-141.00518)"><flowRegion
         id="flowRegion2989-5-4-5-8"><rect
           id="rect2991-7-9-6-21"
           width="409.9017"
           height="145.73993"
           x="120.55251"
           y="265.53046"
           style="font-style:normal;font-variant:normal;font-weight:normal;font-stretch:normal;font-family:Lavi;-inkscape-font-specification:Lavi;text-align:center;text-anchor:middle" /></flowRegion><flowPara
         style="font-size:48px;text-align:center;text-anchor:middle"
         id="flowPara3030-8-7">¡ Excelente !</flowPara></flowRoot>    <flowRoot
       xml:space="preserve"
       id="flowRoot2987-4-9-3-9-2"
       style="font-style:normal;font-variant:normal;font-weight:normal;font-stretch:normal;font-size:12px;line-height:125%;font-family:Lavi;-inkscape-font-specification:Lavi;text-align:center;letter-spacing:0px;word-spacing:0px;text-anchor:middle;fill:#000000;fill-opacity:1;stroke:none"
       transform="translate(1219.642,-89.193687)"><flowRegion
         id="flowRegion2989-5-4-5-8-2"><rect
           id="rect2991-7-9-6-21-2"
           width="409.9017"
           height="145.73993"
           x="120.55251"
           y="265.53046"
           style="font-style:normal;font-variant:normal;font-weight:normal;font-stretch:normal;font-family:Lavi;-inkscape-font-specification:Lavi;text-align:center;text-anchor:middle" /></flowRegion><flowPara
         style="font-size:48px;text-align:center;text-anchor:middle"
         id="flowPara3030-8-7-7">¡ Vivaa !</flowPara></flowRoot>    <flowRoot
       xml:space="preserve"
       id="flowRoot2987-4-9-3-9-2-2"
       style="font-style:normal;font-variant:normal;font-weight:normal;font-stretch:normal;font-size:12px;line-height:125%;font-family:Lavi;-inkscape-font-specification:Lavi;text-align:center;letter-spacing:0px;word-spacing:0px;text-anchor:middle;fill:#000000;fill-opacity:1;stroke:none"
       transform="translate(797.12501,1.3849159)"><flowRegion
         id="flowRegion2989-5-4-5-8-2-2"><rect
           id="rect2991-7-9-6-21-2-5"
           width="437.4017"
           height="148.23993"
           x="120.55251"
           y="265.53046"
           style="font-style:normal;font-variant:normal;font-weight:normal;font-stretch:normal;font-family:Lavi;-inkscape-font-specification:Lavi;text-align:center;text-anchor:middle" /></flowRegion><flowPara
         style="font-size:48px;text-align:center;text-anchor:middle"
         id="flowPara3030-8-7-7-1">¡ Somos las</flowPara><flowPara
         style="font-size:48px;text-align:center;text-anchor:middle"
         id="flowPara3389">mejores !</flowPara></flowRoot>    <flowRoot
       xml:space="preserve"
       id="flowRoot2987-4-9-3-9-2-2-9"
       style="font-style:normal;font-variant:normal;font-weight:normal;font-stretch:normal;font-size:12px;line-height:125%;font-family:Lavi;-inkscape-font-specification:Lavi;text-align:center;letter-spacing:0px;word-spacing:0px;text-anchor:middle;fill:#000000;fill-opacity:1;stroke:none"
       transform="translate(1146.2038,17.938823)"><flowRegion
         id="flowRegion2989-5-4-5-8-2-2-8"><rect
           id="rect2991-7-9-6-21-2-5-3"
           width="282.4017"
           height="133.23993"
           x="120.55251"
           y="265.53046"
           style="font-style:normal;font-variant:normal;font-weight:normal;font-stretch:normal;font-family:Lavi;-inkscape-font-specification:Lavi;text-align:center;text-anchor:middle" /></flowRegion><flowPara
         style="font-size:48px;text-align:center;text-anchor:middle"
         id="flowPara4258">¡ Logramos</flowPara><flowPara
         style="font-size:48px;text-align:center;text-anchor:middle"
         id="flowPara3391">curarlos !</flowPara></flowRoot>    <g
       id="layer1-5"
       transform="matrix(0.09993595,-0.03471419,0.02199218,0.07732029,1625.4623,400.02)">
      <path
         inkscape:connector-curvature="0"
         id="path5065"
         sodipodi:nodetypes="ccsscccssccccccc"
         style="fill:#000000"
         d="m 374.44,235.15 c -28.01,122.41 -59.79,323.52 -95.43,421.8 -104.65,-72.46 -170.09,-41.87 -159.54,41.06 6.7707,53.218 107.92,95.879 173.7,-8.6655 39.841,-63.316 52.861,-191.32 75.437,-296.09 62.46,37.494 122.31,101.13 202.86,111.59 -16.838,75.898 -47.082,194.01 -65.21,272.82 -104.65,-72.46 -192.89,-41.986 -182.34,40.945 6.7707,53.218 177.12,90.859 205.55,-23.531 l 103.19,-415.31 c -65.16,35.4 -188.96,-100.04 -258.22,-144.62 z m 10.854,74.896 c 65.248,37.815 131,118.89 206.47,122.72 -2.5111,11.129 -2.0944,26.125 -4.5591,37.149 -77.915,-10.686 -144.21,-80.519 -211.05,-117.12 2.1323,-10.115 7.3372,-33.949 9.1345,-42.74 z" />
    </g>
    <path
       inkscape:connector-curvature="0"
       id="path5065-6"
       sodipodi:nodetypes="ccssscccsscc"
       style="fill:#000000"
       d="m 1658.6804,462.16434 c -1.8261,7.33947 -3.2225,16.89617 -5.6774,23.63608 -8.6718,-4.11357 -14.4773,-1.39189 -11.3868,2.77108 1.6467,2.2182 7.6553,5.33824 12.8536,0.27481 0.4319,-0.42068 1.1251,-1.74259 1.3255,-2.48647 1.7791,-6.60292 2.6559,-16.4844 3.9247,-22.00797 4.7388,2.92889 11.0901,8.00144 17.605,8.4663 -1.0859,4.5587 -4.9467,16.69861 -6.1262,21.43362 -8.6717,-4.11357 -15.8148,-2.20506 -13.5876,2.39426 1.5291,3.15806 13.561,3.66292 14.9902,-1.2228 l 7.3566,-25.14614 c -5.1153,2.23897 -15.5502,-5.59171 -21.2769,-8.113 z" />
    <path
       inkscape:connector-curvature="0"
       id="path5065-6-4"
       sodipodi:nodetypes="ccsssccccc"
       style="fill:#000000"
       d="m 1625.8947,385.96207 c 2.7567,10.52928 7.7574,23.71505 9.1696,33.80096 -15.4882,-0.71037 -21.8407,5.93998 -14.3433,9.70356 3.9951,2.00519 14.9246,2.84842 18.6866,-6.52484 0.3126,-0.77875 0.3399,-2.87029 0.083,-3.94574 -2.2841,-9.54586 -8.5993,-24.05044 -10.8256,-31.91837 3.4854,2.82072 5.7634,5.71207 7.0092,5.529 -0.02,-1.14139 0.4277,-2.25146 0.4667,-3.12709 -3.9535,-2.00957 -2.9622,-0.77496 -7.7804,-4.6167 -0.6703,-0.53448 -0.2798,0.8273 -2.466,1.09965 z" />
    <g
       id="layer1-5-7"
       transform="matrix(0.06843295,-0.08960639,0.06473847,0.05970609,859.00836,409.4882)">
      <path
         inkscape:connector-curvature="0"
         id="path5065-3"
         sodipodi:nodetypes="ccsscccssccccccc"
         style="fill:#000000"
         d="m 374.44,235.15 c -28.01,122.41 -59.79,323.52 -95.43,421.8 -104.65,-72.46 -170.09,-41.87 -159.54,41.06 6.7707,53.218 107.92,95.879 173.7,-8.6655 39.841,-63.316 52.861,-191.32 75.437,-296.09 62.46,37.494 122.31,101.13 202.86,111.59 -16.838,75.898 -47.082,194.01 -65.21,272.82 -104.65,-72.46 -192.89,-41.986 -182.34,40.945 6.7707,53.218 177.12,90.859 205.55,-23.531 l 103.19,-415.31 c -65.16,35.4 -188.96,-100.04 -258.22,-144.62 z m 10.854,74.896 c 65.248,37.815 131,118.89 206.47,122.72 -2.5111,11.129 -2.0944,26.125 -4.5591,37.149 -77.915,-10.686 -144.21,-80.519 -211.05,-117.12 2.1323,-10.115 7.3372,-33.949 9.1345,-42.74 z" />
    </g>
    <path
       inkscape:connector-curvature="0"
       id="path5065-6-4-1"
       sodipodi:nodetypes="ccsssccccc"
       style="fill:#000000"
       d="m 965.15141,426.25242 c 1.70973,11.89036 5.47342,26.96096 5.82391,38.20755 -16.1508,-2.58466 -23.55228,3.98259 -16.11714,8.99121 3.96193,2.6686 15.32066,4.86821 20.31253,-4.99263 0.41481,-0.81925 0.67768,-3.11419 0.52868,-4.32581 -1.32459,-10.75474 -6.31815,-27.42753 -7.77011,-36.3319 3.33661,3.50531 5.39996,6.94759 6.72593,6.89155 0.10698,-1.25644 0.70034,-2.424 0.83928,-3.38158 -3.91793,-2.66857 -3.01736,-1.19655 -7.63621,-5.97896 -0.64261,-0.66536 -0.38586,0.87642 -2.70727,0.921 z" />
    <path
       inkscape:connector-curvature="0"
       id="path5065-6-41"
       sodipodi:nodetypes="ccssscccsscc"
       style="fill:#000000"
       d="m 866.13252,411.56132 c -0.63246,8.31666 -0.4352,18.98442 -1.82512,26.74958 -9.72992,-3.06745 -15.29866,0.85966 -11.36549,4.89857 2.09568,2.15209 8.8841,4.57216 13.41702,-1.81289 0.37659,-0.53047 0.86941,-2.08827 0.94948,-2.93372 0.71065,-7.50443 -0.0832,-18.44148 0.28301,-24.68313 5.43463,2.42003 12.91648,6.91636 19.77312,6.35311 -0.3425,5.15768 -2.26263,19.05206 -2.672,24.4177 -9.72993,-3.06743 -16.83033,0.1914 -13.7197,4.84881 2.13562,3.19797 14.73757,1.77147 15.38077,-3.79986 l 3.311,-28.67494 c -4.93415,3.2864 -17.1396,-3.55117 -23.53144,-5.36358 z" />
    <flowRoot
       xml:space="preserve"
       id="flowRoot3401"
       style="fill:black;stroke:none;stroke-opacity:1;stroke-width:1px;stroke-linejoin:miter;stroke-linecap:butt;fill-opacity:1;font-family:sans-serif;font-style:normal;font-weight:normal;font-size:40px;line-height:125%;letter-spacing:0px;word-spacing:0px"><flowRegion
         id="flowRegion3403"><rect
           id="rect3405"
           width="162.00624"
           height="102.49375"
           x="783.58124"
           y="1591.9875" /></flowRegion><flowPara
         id="flowPara3407"></flowPara></flowRoot>  </g>
</svg>
